<svg width="462" height="365" viewBox="0 0 462 365" fill="none" xmlns="http://www.w3.org/2000/svg">
<path d="M0 262C5.43233 272.311 11.308 282.002 17.584 291H444.416C450.692 282.002 456.568 272.311 462 262H0Z" fill="#3F3D56"/>
<path d="M185 217.056V278H257V217.056C257.001 216.618 256.765 216.191 256.327 215.838C255.889 215.485 255.271 215.225 254.565 215.095C254.232 215.03 253.883 214.998 253.533 215H188.477C188.021 215 187.569 215.052 187.148 215.155C186.726 215.258 186.343 215.41 186.02 215.601C185.697 215.792 185.441 216.019 185.266 216.268C185.091 216.518 185 216.786 185 217.056ZM213.099 237.997C213.117 236.795 213.935 235.647 215.375 234.801C216.814 233.955 218.758 233.481 220.785 233.481C222.811 233.481 224.755 233.955 226.194 234.801C227.634 235.647 228.452 236.795 228.471 237.997V245.068C228.46 246.273 227.646 247.426 226.206 248.276C224.765 249.125 222.816 249.602 220.785 249.602C218.753 249.602 216.804 249.125 215.364 248.276C213.923 247.426 213.109 246.273 213.099 245.068V237.997Z" fill="#2F2E41"/>
<path d="M184.94 264.08V273.97C184.942 274.482 185.145 274.973 185.506 275.337C185.868 275.7 186.358 275.906 186.87 275.91H255.3C255.813 275.908 256.304 275.702 256.665 275.338C257.027 274.975 257.23 274.483 257.23 273.97V264.08H184.94Z" fill="#3F3D56"/>
<path d="M72.1299 25.28V212.54C72.1318 214.926 73.0806 217.214 74.768 218.902C76.4554 220.589 78.7435 221.538 81.1299 221.54H358.63C361.016 221.538 363.304 220.589 364.992 218.902C366.679 217.215 367.628 214.926 367.63 212.54V25.28C367.624 22.8957 366.674 20.6109 364.987 18.9259C363.3 17.2409 361.014 16.2931 358.63 16.29H81.1299C78.7456 16.2931 76.4597 17.2409 74.7728 18.9259C73.0859 20.6109 72.1356 22.8957 72.1299 25.28V25.28Z" fill="#3F3D56"/>
<path d="M78.6401 27.82V210.44C78.6423 211.715 79.1498 212.937 80.0514 213.839C80.9529 214.74 82.1751 215.248 83.4501 215.25H356.32C357.595 215.248 358.817 214.74 359.719 213.839C360.62 212.937 361.128 211.715 361.13 210.44V27.82C361.13 26.5434 360.624 25.319 359.722 24.4154C358.82 23.5118 357.597 23.0028 356.32 23H83.4501C82.1736 23.0028 80.9502 23.5118 80.0485 24.4154C79.1468 25.319 78.6403 26.5434 78.6401 27.82Z" fill="#F2E093"/>
<path d="M134.28 278.24C134.558 278.588 134.911 278.869 135.313 279.061C135.714 279.254 136.155 279.352 136.6 279.35H298.94C299.384 279.35 299.822 279.25 300.223 279.059C300.624 278.868 300.977 278.589 301.256 278.245C301.536 277.9 301.735 277.497 301.84 277.066C301.944 276.634 301.951 276.185 301.86 275.75L299.34 263.78C299.236 263.292 299.011 262.838 298.686 262.459C298.361 262.08 297.946 261.788 297.48 261.61C297.142 261.478 296.783 261.41 296.42 261.41H139.11C138.747 261.41 138.388 261.478 138.05 261.61C137.584 261.788 137.169 262.08 136.844 262.459C136.519 262.838 136.294 263.292 136.19 263.78L133.67 275.75C133.58 276.184 133.589 276.633 133.694 277.064C133.8 277.495 134 277.896 134.28 278.24Z" fill="#2F2E41"/>
<path d="M290.755 266.566H294.779C295.048 266.566 295.267 266.347 295.267 266.078V264.054C295.267 263.784 295.048 263.566 294.779 263.566H290.755C290.486 263.566 290.267 263.784 290.267 264.054V266.078C290.267 266.347 290.486 266.566 290.755 266.566Z" fill="#3F3D56"/>
<path d="M280.755 266.566H284.779C285.049 266.566 285.267 266.347 285.267 266.078V264.054C285.267 263.784 285.049 263.566 284.779 263.566H280.755C280.486 263.566 280.267 263.784 280.267 264.054V266.078C280.267 266.347 280.486 266.566 280.755 266.566Z" fill="#3F3D56"/>
<path d="M270.755 266.566H274.779C275.049 266.566 275.267 266.347 275.267 266.078V264.054C275.267 263.784 275.049 263.566 274.779 263.566H270.755C270.486 263.566 270.267 263.784 270.267 264.054V266.078C270.267 266.347 270.486 266.566 270.755 266.566Z" fill="#3F3D56"/>
<path d="M260.755 266.566H264.779C265.049 266.566 265.267 266.347 265.267 266.078V264.054C265.267 263.784 265.049 263.566 264.779 263.566H260.755C260.486 263.566 260.267 263.784 260.267 264.054V266.078C260.267 266.347 260.486 266.566 260.755 266.566Z" fill="#3F3D56"/>
<path d="M250.755 266.566H254.779C255.049 266.566 255.267 266.347 255.267 266.078V264.054C255.267 263.784 255.049 263.566 254.779 263.566H250.755C250.486 263.566 250.267 263.784 250.267 264.054V266.078C250.267 266.347 250.486 266.566 250.755 266.566Z" fill="#3F3D56"/>
<path d="M240.755 266.566H244.779C245.049 266.566 245.267 266.347 245.267 266.078V264.054C245.267 263.784 245.049 263.566 244.779 263.566H240.755C240.486 263.566 240.267 263.784 240.267 264.054V266.078C240.267 266.347 240.486 266.566 240.755 266.566Z" fill="#3F3D56"/>
<path d="M230.755 266.566H234.779C235.049 266.566 235.267 266.347 235.267 266.078V264.054C235.267 263.784 235.049 263.566 234.779 263.566H230.755C230.486 263.566 230.267 263.784 230.267 264.054V266.078C230.267 266.347 230.486 266.566 230.755 266.566Z" fill="#3F3D56"/>
<path d="M220.755 266.566H224.779C225.049 266.566 225.267 266.347 225.267 266.078V264.054C225.267 263.784 225.049 263.566 224.779 263.566H220.755C220.486 263.566 220.267 263.784 220.267 264.054V266.078C220.267 266.347 220.486 266.566 220.755 266.566Z" fill="#3F3D56"/>
<path d="M210.755 266.566H214.779C215.049 266.566 215.267 266.347 215.267 266.078V264.054C215.267 263.784 215.049 263.566 214.779 263.566H210.755C210.486 263.566 210.267 263.784 210.267 264.054V266.078C210.267 266.347 210.486 266.566 210.755 266.566Z" fill="#3F3D56"/>
<path d="M200.755 266.566H204.779C205.049 266.566 205.267 266.347 205.267 266.078V264.054C205.267 263.784 205.049 263.566 204.779 263.566H200.755C200.486 263.566 200.267 263.784 200.267 264.054V266.078C200.267 266.347 200.486 266.566 200.755 266.566Z" fill="#3F3D56"/>
<path d="M190.755 266.566H194.779C195.049 266.566 195.267 266.347 195.267 266.078V264.054C195.267 263.784 195.049 263.566 194.779 263.566H190.755C190.486 263.566 190.267 263.784 190.267 264.054V266.078C190.267 266.347 190.486 266.566 190.755 266.566Z" fill="#3F3D56"/>
<path d="M180.755 266.566H184.779C185.049 266.566 185.267 266.347 185.267 266.078V264.054C185.267 263.784 185.049 263.566 184.779 263.566H180.755C180.486 263.566 180.267 263.784 180.267 264.054V266.078C180.267 266.347 180.486 266.566 180.755 266.566Z" fill="#3F3D56"/>
<path d="M170.755 266.566H174.779C175.049 266.566 175.267 266.347 175.267 266.078V264.054C175.267 263.784 175.049 263.566 174.779 263.566H170.755C170.486 263.566 170.267 263.784 170.267 264.054V266.078C170.267 266.347 170.486 266.566 170.755 266.566Z" fill="#3F3D56"/>
<path d="M160.755 266.566H164.779C165.049 266.566 165.267 266.347 165.267 266.078V264.054C165.267 263.784 165.049 263.566 164.779 263.566H160.755C160.486 263.566 160.267 263.784 160.267 264.054V266.078C160.267 266.347 160.486 266.566 160.755 266.566Z" fill="#3F3D56"/>
<path d="M150.755 266.566H154.779C155.049 266.566 155.267 266.347 155.267 266.078V264.054C155.267 263.784 155.049 263.566 154.779 263.566H150.755C150.486 263.566 150.267 263.784 150.267 264.054V266.078C150.267 266.347 150.486 266.566 150.755 266.566Z" fill="#3F3D56"/>
<path d="M140.755 266.566H144.779C145.049 266.566 145.267 266.347 145.267 266.078V264.054C145.267 263.784 145.049 263.566 144.779 263.566H140.755C140.486 263.566 140.267 263.784 140.267 264.054V266.078C140.267 266.347 140.486 266.566 140.755 266.566Z" fill="#3F3D56"/>
<path d="M290.873 271.566H294.897C295.167 271.566 295.385 271.347 295.385 271.078V269.054C295.385 268.784 295.167 268.566 294.897 268.566H290.873C290.604 268.566 290.385 268.784 290.385 269.054V271.078C290.385 271.347 290.604 271.566 290.873 271.566Z" fill="#3F3D56"/>
<path d="M280.873 271.566H284.897C285.167 271.566 285.385 271.347 285.385 271.078V269.054C285.385 268.784 285.167 268.566 284.897 268.566H280.873C280.604 268.566 280.385 268.784 280.385 269.054V271.078C280.385 271.347 280.604 271.566 280.873 271.566Z" fill="#3F3D56"/>
<path d="M270.873 271.566H274.897C275.167 271.566 275.385 271.347 275.385 271.078V269.054C275.385 268.784 275.167 268.566 274.897 268.566H270.873C270.604 268.566 270.385 268.784 270.385 269.054V271.078C270.385 271.347 270.604 271.566 270.873 271.566Z" fill="#3F3D56"/>
<path d="M260.873 271.566H264.897C265.167 271.566 265.385 271.347 265.385 271.078V269.054C265.385 268.784 265.167 268.566 264.897 268.566H260.873C260.604 268.566 260.385 268.784 260.385 269.054V271.078C260.385 271.347 260.604 271.566 260.873 271.566Z" fill="#3F3D56"/>
<path d="M250.873 271.566H254.897C255.167 271.566 255.385 271.347 255.385 271.078V269.054C255.385 268.784 255.167 268.566 254.897 268.566H250.873C250.604 268.566 250.385 268.784 250.385 269.054V271.078C250.385 271.347 250.604 271.566 250.873 271.566Z" fill="#3F3D56"/>
<path d="M240.873 271.566H244.897C245.167 271.566 245.385 271.347 245.385 271.078V269.054C245.385 268.784 245.167 268.566 244.897 268.566H240.873C240.604 268.566 240.385 268.784 240.385 269.054V271.078C240.385 271.347 240.604 271.566 240.873 271.566Z" fill="#3F3D56"/>
<path d="M230.873 271.566H234.897C235.167 271.566 235.385 271.347 235.385 271.078V269.054C235.385 268.784 235.167 268.566 234.897 268.566H230.873C230.604 268.566 230.385 268.784 230.385 269.054V271.078C230.385 271.347 230.604 271.566 230.873 271.566Z" fill="#3F3D56"/>
<path d="M220.873 271.566H224.897C225.167 271.566 225.385 271.347 225.385 271.078V269.054C225.385 268.784 225.167 268.566 224.897 268.566H220.873C220.604 268.566 220.385 268.784 220.385 269.054V271.078C220.385 271.347 220.604 271.566 220.873 271.566Z" fill="#3F3D56"/>
<path d="M210.873 271.566H214.897C215.167 271.566 215.385 271.347 215.385 271.078V269.054C215.385 268.784 215.167 268.566 214.897 268.566H210.873C210.604 268.566 210.385 268.784 210.385 269.054V271.078C210.385 271.347 210.604 271.566 210.873 271.566Z" fill="#3F3D56"/>
<path d="M200.873 271.566H204.897C205.167 271.566 205.385 271.347 205.385 271.078V269.054C205.385 268.784 205.167 268.566 204.897 268.566H200.873C200.604 268.566 200.385 268.784 200.385 269.054V271.078C200.385 271.347 200.604 271.566 200.873 271.566Z" fill="#3F3D56"/>
<path d="M190.873 271.566H194.897C195.167 271.566 195.385 271.347 195.385 271.078V269.054C195.385 268.784 195.167 268.566 194.897 268.566H190.873C190.604 268.566 190.385 268.784 190.385 269.054V271.078C190.385 271.347 190.604 271.566 190.873 271.566Z" fill="#3F3D56"/>
<path d="M180.873 271.566H184.897C185.167 271.566 185.385 271.347 185.385 271.078V269.054C185.385 268.784 185.167 268.566 184.897 268.566H180.873C180.604 268.566 180.385 268.784 180.385 269.054V271.078C180.385 271.347 180.604 271.566 180.873 271.566Z" fill="#3F3D56"/>
<path d="M170.873 271.566H174.897C175.167 271.566 175.385 271.347 175.385 271.078V269.054C175.385 268.784 175.167 268.566 174.897 268.566H170.873C170.604 268.566 170.385 268.784 170.385 269.054V271.078C170.385 271.347 170.604 271.566 170.873 271.566Z" fill="#3F3D56"/>
<path d="M160.873 271.566H164.897C165.167 271.566 165.385 271.347 165.385 271.078V269.054C165.385 268.784 165.167 268.566 164.897 268.566H160.873C160.604 268.566 160.385 268.784 160.385 269.054V271.078C160.385 271.347 160.604 271.566 160.873 271.566Z" fill="#3F3D56"/>
<path d="M150.873 271.566H154.897C155.167 271.566 155.385 271.347 155.385 271.078V269.054C155.385 268.784 155.167 268.566 154.897 268.566H150.873C150.604 268.566 150.385 268.784 150.385 269.054V271.078C150.385 271.347 150.604 271.566 150.873 271.566Z" fill="#3F3D56"/>
<path d="M140.873 271.566H144.897C145.167 271.566 145.385 271.347 145.385 271.078V269.054C145.385 268.784 145.167 268.566 144.897 268.566H140.873C140.604 268.566 140.385 268.784 140.385 269.054V271.078C140.385 271.347 140.604 271.566 140.873 271.566Z" fill="#3F3D56"/>
<path d="M207.873 277.566H246.897C247.167 277.566 247.385 277.347 247.385 277.078V275.054C247.385 274.784 247.167 274.566 246.897 274.566H207.873C207.604 274.566 207.385 274.784 207.385 275.054V277.078C207.385 277.347 207.604 277.566 207.873 277.566Z" fill="#3F3D56"/>
<path d="M97.1617 47.9467H352.485C352.751 47.9409 353.003 47.8313 353.189 47.6416C353.374 47.4518 353.478 47.1969 353.478 46.9314C353.478 46.6659 353.374 46.4109 353.189 46.2212C353.003 46.0314 352.751 45.9218 352.485 45.916H97.1617C96.8963 45.9218 96.6437 46.0314 96.4581 46.2212C96.2724 46.4109 96.1685 46.6659 96.1685 46.9314C96.1685 47.1969 96.2724 47.4518 96.4581 47.6416C96.6437 47.8313 96.8963 47.9409 97.1617 47.9467Z" fill="#3F3D56"/>
<path d="M335.105 40.7319C338.392 40.7319 341.056 38.0084 341.056 34.6488C341.056 31.2893 338.392 28.5658 335.105 28.5658C331.819 28.5658 329.155 31.2893 329.155 34.6488C329.155 38.0084 331.819 40.7319 335.105 40.7319Z" fill="#E77070"/>
<path d="M314.549 40.7319C317.835 40.7319 320.499 38.0084 320.499 34.6488C320.499 31.2893 317.835 28.5658 314.549 28.5658C311.263 28.5658 308.599 31.2893 308.599 34.6488C308.599 38.0084 311.263 40.7319 314.549 40.7319Z" fill="#52DA4F"/>
<path d="M293.993 40.7319C297.279 40.7319 299.943 38.0084 299.943 34.6488C299.943 31.2893 297.279 28.5658 293.993 28.5658C290.707 28.5658 288.042 31.2893 288.042 34.6488C288.042 38.0084 290.707 40.7319 293.993 40.7319Z" fill="#FFB800"/>
<path d="M108.45 31.1801C108.45 31.3239 108.477 31.4664 108.532 31.5995C108.586 31.7326 108.666 31.8537 108.767 31.9559C108.869 32.058 108.989 32.1392 109.122 32.1949C109.254 32.2505 109.396 32.2794 109.54 32.2801H124.14C124.429 32.2733 124.703 32.154 124.905 31.9475C125.107 31.741 125.22 31.4638 125.22 31.1751C125.22 30.8864 125.107 30.6091 124.905 30.4026C124.703 30.1962 124.429 30.0768 124.14 30.0701H109.54C109.249 30.0736 108.971 30.1923 108.766 30.4003C108.562 30.6083 108.448 30.8886 108.45 31.1801V31.1801Z" fill="#3F3D56"/>
<path d="M108.45 35.33C108.45 35.4738 108.477 35.6163 108.532 35.7495C108.586 35.8826 108.666 36.0037 108.767 36.1058C108.869 36.208 108.989 36.2892 109.122 36.3448C109.254 36.4004 109.396 36.4294 109.54 36.43H124.14C124.429 36.4236 124.704 36.3044 124.906 36.0978C125.108 35.8913 125.221 35.6139 125.221 35.325C125.221 35.0361 125.108 34.7587 124.906 34.5521C124.704 34.3456 124.429 34.2264 124.14 34.22H109.54C109.249 34.2235 108.971 34.3422 108.766 34.5502C108.562 34.7582 108.448 35.0385 108.45 35.33V35.33Z" fill="#3F3D56"/>
<path d="M108.45 39.47C108.448 39.7615 108.562 40.0418 108.766 40.2498C108.971 40.4578 109.249 40.5765 109.54 40.58H124.14C124.429 40.5733 124.703 40.4539 124.905 40.2474C125.107 40.0409 125.22 39.7637 125.22 39.475C125.22 39.1863 125.107 38.9091 124.905 38.7026C124.703 38.4961 124.429 38.3767 124.14 38.37H109.54C109.396 38.3706 109.254 38.3996 109.122 38.4552C108.989 38.5108 108.869 38.592 108.767 38.6942C108.666 38.7963 108.586 38.9174 108.532 39.0505C108.477 39.1837 108.45 39.3262 108.45 39.47V39.47Z" fill="#3F3D56"/>
<path d="M112.962 71.5432H107.716C106.125 71.5432 104.836 72.8326 104.836 74.4232C104.836 76.0137 106.125 77.3031 107.716 77.3031H112.962C114.553 77.3031 115.842 76.0137 115.842 74.4232C115.842 72.8326 114.553 71.5432 112.962 71.5432Z" fill="#1D9BF0"/>
<path d="M172.962 71.5432H167.716C166.125 71.5432 164.836 72.8326 164.836 74.4232C164.836 76.0137 166.125 77.3031 167.716 77.3031H172.962C174.553 77.3031 175.842 76.0137 175.842 74.4232C175.842 72.8326 174.553 71.5432 172.962 71.5432Z" fill="#77A568"/>
<path d="M189.962 71.5432H184.716C183.125 71.5432 181.836 72.8326 181.836 74.4232C181.836 76.0137 183.125 77.3031 184.716 77.3031H189.962C191.553 77.3031 192.842 76.0137 192.842 74.4232C192.842 72.8326 191.553 71.5432 189.962 71.5432Z" fill="#337DAF"/>
<path d="M156.642 71.0632H124.036C122.446 71.0632 121.156 72.3526 121.156 73.9432C121.156 75.5338 122.446 76.8232 124.036 76.8232H156.642C158.233 76.8232 159.522 75.5338 159.522 73.9432C159.522 72.3526 158.233 71.0632 156.642 71.0632Z" fill="#B16DD2"/>
<path d="M236.642 71.0632H204.036C202.446 71.0632 201.156 72.3526 201.156 73.9432C201.156 75.5338 202.446 76.8232 204.036 76.8232H236.642C238.233 76.8232 239.522 75.5338 239.522 73.9432C239.522 72.3526 238.233 71.0632 236.642 71.0632Z" fill="#AD7E00"/>
<path d="M128.962 84.5432H123.716C122.125 84.5432 120.836 85.8326 120.836 87.4232C120.836 89.0137 122.125 90.3031 123.716 90.3031H128.962C130.553 90.3031 131.842 89.0137 131.842 87.4232C131.842 85.8326 130.553 84.5432 128.962 84.5432Z" fill="#B16DD2"/>
<path d="M188.962 84.5432H183.716C182.125 84.5432 180.836 85.8326 180.836 87.4232C180.836 89.0137 182.125 90.3031 183.716 90.3031H188.962C190.553 90.3031 191.842 89.0137 191.842 87.4232C191.842 85.8326 190.553 84.5432 188.962 84.5432Z" fill="#B16DD2"/>
<path d="M205.962 84.5432H200.716C199.125 84.5432 197.836 85.8326 197.836 87.4232C197.836 89.0137 199.125 90.3031 200.716 90.3031H205.962C207.553 90.3031 208.842 89.0137 208.842 87.4232C208.842 85.8326 207.553 84.5432 205.962 84.5432Z" fill="#77A568"/>
<path d="M172.642 84.0632H140.036C138.446 84.0632 137.156 85.3526 137.156 86.9432C137.156 88.5338 138.446 89.8232 140.036 89.8232H172.642C174.233 89.8232 175.522 88.5338 175.522 86.9432C175.522 85.3526 174.233 84.0632 172.642 84.0632Z" fill="#AD7E00"/>
<path d="M252.642 84.0632H220.036C218.446 84.0632 217.156 85.3526 217.156 86.9432C217.156 88.5338 218.446 89.8232 220.036 89.8232H252.642C254.233 89.8232 255.522 88.5338 255.522 86.9432C255.522 85.3526 254.233 84.0632 252.642 84.0632Z" fill="#337DAF"/>
<path d="M144.962 97.5432H139.716C138.125 97.5432 136.836 98.8326 136.836 100.423C136.836 102.014 138.125 103.303 139.716 103.303H144.962C146.553 103.303 147.842 102.014 147.842 100.423C147.842 98.8326 146.553 97.5432 144.962 97.5432Z" fill="#337DAF"/>
<path d="M204.962 97.5432H199.716C198.125 97.5432 196.836 98.8326 196.836 100.423C196.836 102.014 198.125 103.303 199.716 103.303H204.962C206.553 103.303 207.842 102.014 207.842 100.423C207.842 98.8326 206.553 97.5432 204.962 97.5432Z" fill="#AD7E00"/>
<path d="M221.962 97.5432H216.716C215.125 97.5432 213.836 98.8326 213.836 100.423C213.836 102.014 215.125 103.303 216.716 103.303H221.962C223.553 103.303 224.842 102.014 224.842 100.423C224.842 98.8326 223.553 97.5432 221.962 97.5432Z" fill="#1D9BF0"/>
<path d="M188.642 97.0632H156.036C154.446 97.0632 153.156 98.3526 153.156 99.9432C153.156 101.534 154.446 102.823 156.036 102.823H188.642C190.233 102.823 191.522 101.534 191.522 99.9432C191.522 98.3526 190.233 97.0632 188.642 97.0632Z" fill="#B16DD2"/>
<path d="M268.642 97.0632H236.036C234.446 97.0632 233.156 98.3526 233.156 99.9432C233.156 101.534 234.446 102.823 236.036 102.823H268.642C270.233 102.823 271.522 101.534 271.522 99.9432C271.522 98.3526 270.233 97.0632 268.642 97.0632Z" fill="#B16DD2"/>
<path d="M160.962 110.543H155.716C154.125 110.543 152.836 111.833 152.836 113.423C152.836 115.014 154.125 116.303 155.716 116.303H160.962C162.553 116.303 163.842 115.014 163.842 113.423C163.842 111.833 162.553 110.543 160.962 110.543Z" fill="#B16DD2"/>
<path d="M220.962 110.543H215.716C214.125 110.543 212.836 111.833 212.836 113.423C212.836 115.014 214.125 116.303 215.716 116.303H220.962C222.553 116.303 223.842 115.014 223.842 113.423C223.842 111.833 222.553 110.543 220.962 110.543Z" fill="#337DAF"/>
<path d="M237.962 110.543H232.716C231.125 110.543 229.836 111.833 229.836 113.423C229.836 115.014 231.125 116.303 232.716 116.303H237.962C239.553 116.303 240.842 115.014 240.842 113.423C240.842 111.833 239.553 110.543 237.962 110.543Z" fill="#77A568"/>
<path d="M204.642 110.063H172.036C170.446 110.063 169.156 111.353 169.156 112.943C169.156 114.534 170.446 115.823 172.036 115.823H204.642C206.233 115.823 207.522 114.534 207.522 112.943C207.522 111.353 206.233 110.063 204.642 110.063Z" fill="#AD7E00"/>
<path d="M172.962 162.237H167.716C166.125 162.237 164.836 163.526 164.836 165.117C164.836 166.707 166.125 167.997 167.716 167.997H172.962C174.553 167.997 175.842 166.707 175.842 165.117C175.842 163.526 174.553 162.237 172.962 162.237Z" fill="#337DAF"/>
<path d="M189.962 162.237H184.716C183.125 162.237 181.836 163.526 181.836 165.117C181.836 166.707 183.125 167.997 184.716 167.997H189.962C191.553 167.997 192.842 166.707 192.842 165.117C192.842 163.526 191.553 162.237 189.962 162.237Z" fill="#337DAF"/>
<path d="M236.642 162.717H204.036C202.446 162.717 201.156 164.006 201.156 165.597C201.156 167.188 202.446 168.477 204.036 168.477H236.642C238.233 168.477 239.522 167.188 239.522 165.597C239.522 164.006 238.233 162.717 236.642 162.717Z" fill="#1D9BF0"/>
<path d="M112.962 162.237H107.716C106.125 162.237 104.836 163.526 104.836 165.117C104.836 166.707 106.125 167.997 107.716 167.997H112.962C114.553 167.997 115.842 166.707 115.842 165.117C115.842 163.526 114.553 162.237 112.962 162.237Z" fill="#1D9BF0"/>
<path d="M156.642 162.717H124.036C122.446 162.717 121.156 164.006 121.156 165.597C121.156 167.188 122.446 168.477 124.036 168.477H156.642C158.233 168.477 159.522 167.188 159.522 165.597C159.522 164.006 158.233 162.717 156.642 162.717Z" fill="#AD7E00"/>
<path d="M128.962 149.237H123.716C122.125 149.237 120.836 150.526 120.836 152.117C120.836 153.707 122.125 154.997 123.716 154.997H128.962C130.553 154.997 131.842 153.707 131.842 152.117C131.842 150.526 130.553 149.237 128.962 149.237Z" fill="#1D9BF0"/>
<path d="M188.962 149.237H183.716C182.125 149.237 180.836 150.526 180.836 152.117C180.836 153.707 182.125 154.997 183.716 154.997H188.962C190.553 154.997 191.842 153.707 191.842 152.117C191.842 150.526 190.553 149.237 188.962 149.237Z" fill="#1D9BF0"/>
<path d="M205.962 149.237H200.716C199.125 149.237 197.836 150.526 197.836 152.117C197.836 153.707 199.125 154.997 200.716 154.997H205.962C207.553 154.997 208.842 153.707 208.842 152.117C208.842 150.526 207.553 149.237 205.962 149.237Z" fill="#77A568"/>
<path d="M172.642 149.717H140.036C138.446 149.717 137.156 151.006 137.156 152.597C137.156 154.188 138.446 155.477 140.036 155.477H172.642C174.233 155.477 175.522 154.188 175.522 152.597C175.522 151.006 174.233 149.717 172.642 149.717Z" fill="#77A568"/>
<path d="M144.962 136.237H139.716C138.125 136.237 136.836 137.526 136.836 139.117C136.836 140.707 138.125 141.997 139.716 141.997H144.962C146.553 141.997 147.842 140.707 147.842 139.117C147.842 137.526 146.553 136.237 144.962 136.237Z" fill="#337DAF"/>
<path d="M204.962 136.237H199.716C198.125 136.237 196.836 137.526 196.836 139.117C196.836 140.707 198.125 141.997 199.716 141.997H204.962C206.553 141.997 207.842 140.707 207.842 139.117C207.842 137.526 206.553 136.237 204.962 136.237Z" fill="#337DAF"/>
<path d="M221.962 136.237H216.716C215.125 136.237 213.836 137.526 213.836 139.117C213.836 140.707 215.125 141.997 216.716 141.997H221.962C223.553 141.997 224.842 140.707 224.842 139.117C224.842 137.526 223.553 136.237 221.962 136.237Z" fill="#E6E6E6"/>
<path d="M188.642 136.717H156.036C154.446 136.717 153.156 138.006 153.156 139.597C153.156 141.188 154.446 142.477 156.036 142.477H188.642C190.233 142.477 191.522 141.188 191.522 139.597C191.522 138.006 190.233 136.717 188.642 136.717Z" fill="#1D9BF0"/>
<path d="M160.962 123.237H155.716C154.125 123.237 152.836 124.526 152.836 126.117C152.836 127.707 154.125 128.997 155.716 128.997H160.962C162.553 128.997 163.842 127.707 163.842 126.117C163.842 124.526 162.553 123.237 160.962 123.237Z" fill="#77A568"/>
<path d="M220.962 123.237H215.716C214.125 123.237 212.836 124.526 212.836 126.117C212.836 127.707 214.125 128.997 215.716 128.997H220.962C222.553 128.997 223.842 127.707 223.842 126.117C223.842 124.526 222.553 123.237 220.962 123.237Z" fill="#AD7E00"/>
<path d="M237.962 123.237H232.716C231.125 123.237 229.836 124.526 229.836 126.117C229.836 127.707 231.125 128.997 232.716 128.997H237.962C239.553 128.997 240.842 127.707 240.842 126.117C240.842 124.526 239.553 123.237 237.962 123.237Z" fill="#AD7E00"/>
<path d="M204.642 123.717H172.036C170.446 123.717 169.156 125.006 169.156 126.597C169.156 128.188 170.446 129.477 172.036 129.477H204.642C206.233 129.477 207.522 128.188 207.522 126.597C207.522 125.006 206.233 123.717 204.642 123.717Z" fill="#B16DD2"/>
<path d="M94.1001 335.04C94.7101 335.35 95.3301 335.66 95.9401 335.96C111.74 343.86 124.38 348.35 141.67 353.27C143.13 336.97 144.54 308.32 145.91 290.56C146.27 285.95 146.63 282.08 146.98 279.35C147.068 277.899 147.365 276.467 147.86 275.1L147.8 279.35L147.65 290.56L146.78 354.67C168.288 360.361 190.381 363.545 212.62 364.16C213.78 364.19 214.92 364.21 216.02 364.23C216.41 364.24 216.79 364.25 217.17 364.25C218.42 364.26 219.66 364.27 220.91 364.27C244.346 364.287 267.697 361.457 290.45 355.84C289.96 339.71 289.47 311.38 289 290.56C288.9 286.49 288.81 282.7 288.71 279.35C288.52 272.19 288.32 267.03 288.13 265.3C288.298 265.607 288.429 265.932 288.52 266.27C289.446 270.582 290.078 274.952 290.41 279.35C290.76 282.7 291.11 286.49 291.46 290.56C293.32 312.19 295.26 341.6 297.26 354.07C309.164 350.82 320.846 346.802 332.23 342.04C338.23 339.54 344.123 336.843 349.91 333.95C348.81 326.75 347.66 318.68 346.48 310.31C345.56 303.82 344.61 297.15 343.64 290.56C342.14 280.38 319.85 209.24 318.44 206.54C317.23 204.23 316.08 202.05 314.99 200.04C312.35 195.16 310.11 191.27 308.45 188.81C301.51 178.283 291.178 170.446 279.17 166.6L278.87 166.52L278.66 166.61L258.21 160.33L255.22 159.41L253.21 158.79L246.13 153.4L242.28 150.47L238.67 147.72L231.61 142.35L187.9 145.04L179.39 165.53L160.33 172.5L160 172.35L159.71 172.23L159.41 172.31C147.404 176.159 137.073 183.996 130.13 194.52C129.19 195.93 128.05 197.79 126.76 200.04C125.66 201.95 124.46 204.13 123.16 206.54C121.31 209.97 119.29 213.84 117.15 218.03C116.68 218.95 116.2 219.89 115.72 220.84C114.83 222.6 113.927 224.397 113.01 226.23C110.88 230.48 108.68 234.92 106.48 239.43C104.57 243.34 102.64 251.38 100.74 261.61C99.1702 270.11 97.6102 280.13 96.1002 290.56C94.1202 304.08 96.2302 320.27 94.4402 332.71C94.3301 333.5 94.2101 334.27 94.1001 335.04Z" fill="#3F3D56"/>
<path opacity="0.2" d="M303.59 261.566L295.093 228.774L287.59 257.07L303.59 261.566Z" fill="black"/>
<path d="M77.48 240.2C80.52 282.08 77.37 300.52 94.15 335.05C109.417 342.523 125.32 348.62 141.67 353.27C143.37 353.75 145.073 354.217 146.78 354.67C168.287 360.361 190.381 363.545 212.62 364.16C213.78 364.19 214.92 364.21 216.02 364.23C216.41 364.24 216.79 364.25 217.17 364.25C218.42 364.26 219.66 364.27 220.91 364.27C244.346 364.287 267.697 361.457 290.45 355.84C292.73 355.28 295 354.69 297.26 354.07C309.164 350.82 320.846 346.802 332.23 342.04C338.23 339.54 344.123 336.843 349.91 333.95C351.22 333.29 352.53 332.63 353.82 331.95C360.45 320.29 364.22 306.11 364.3 289.07C359.71 259.71 87.62 214.88 77.48 240.2Z" fill="#2F2E41"/>
<path opacity="0.2" d="M77.4879 247.372C77.3326 244.779 77.159 242.101 76.9565 239.312C87.0965 213.992 359.187 258.822 363.777 288.182C363.764 290.874 363.649 293.486 363.455 296.037C352.34 267.059 93.8505 224.451 77.4879 247.372Z" fill="black"/>
<path d="M15.8293 261.186C16.2699 262.468 17.1056 263.579 18.2165 264.357C19.3274 265.135 20.6563 265.541 22.0124 265.517L48.5043 264.835C49.8703 264.808 51.191 264.34 52.2691 263.501C53.3471 262.662 54.1245 261.496 54.4851 260.178L58.234 220.091C59.5641 220.693 61.012 220.991 62.4719 220.962C65.0323 220.896 67.4617 219.816 69.2261 217.959C70.9905 216.102 71.9456 213.621 71.8813 211.061C71.817 208.5 70.7387 206.07 68.8833 204.305C67.028 202.539 64.5474 201.582 61.987 201.645C61.4035 201.643 60.8214 201.704 60.2508 201.825C59.6302 201.154 58.8759 200.62 58.0365 200.258C57.197 199.896 56.291 199.713 55.3768 199.722L14.6262 200.775C14.2882 200.787 13.9519 200.829 13.621 200.9C12.7274 201.066 11.8798 201.422 11.1353 201.944C10.3908 202.466 9.76667 203.141 9.30495 203.924C8.84322 204.707 8.5546 205.58 8.45851 206.484C8.36242 207.388 8.46108 208.302 8.74786 209.164L15.8293 261.186ZM59.0028 217.369L61.6704 207.816C61.9739 206.713 61.9809 205.549 61.6908 204.441C61.8202 204.441 61.9344 204.38 62.0638 204.379C63.8929 204.342 65.6624 205.031 66.9843 206.296C68.3061 207.56 69.0725 209.298 69.1153 211.127C69.1581 212.956 68.4739 214.727 67.2128 216.052C65.9516 217.378 64.2163 218.149 62.3874 218.197C61.2049 218.234 60.0347 217.947 59.0028 217.369V217.369Z" fill="#2F2E41"/>
<path d="M13.6211 200.9C14.4893 205.864 24.2502 209.353 35.9869 208.747C46.7796 208.25 55.6044 204.46 57.2212 199.968C56.6228 199.791 56.0006 199.708 55.3768 199.722L14.6263 200.775C14.2882 200.787 13.9519 200.829 13.6211 200.9V200.9Z" fill="#3F3D56"/>
<path d="M38.138 239.157C38.1916 239.144 38.2427 239.121 38.2889 239.091L44.042 235.325C44.1116 235.28 44.1687 235.218 44.2083 235.145C44.2479 235.072 44.2686 234.99 44.2687 234.907C44.2687 234.824 44.248 234.743 44.2085 234.67C44.169 234.597 44.1119 234.535 44.0424 234.489L38.0626 230.572C38.0077 230.536 37.9462 230.511 37.8816 230.499C37.817 230.486 37.7505 230.486 37.6861 230.5C37.6216 230.513 37.5604 230.539 37.506 230.576C37.4516 230.613 37.405 230.66 37.3689 230.715C37.3328 230.77 37.308 230.832 37.2958 230.897C37.2836 230.961 37.2843 231.028 37.2978 231.092C37.3114 231.156 37.3375 231.218 37.3747 231.272C37.4119 231.326 37.4595 231.372 37.5147 231.408L42.8556 234.907L37.7416 238.254C37.6426 238.319 37.5697 238.417 37.536 238.53C37.5023 238.644 37.5099 238.765 37.5574 238.874C37.605 238.982 37.6894 239.07 37.7957 239.122C37.902 239.174 38.0233 239.187 38.138 239.157H38.138Z" fill="#F2E093"/>
<path d="M29.051 239.577C29.1475 239.552 29.2346 239.499 29.301 239.425C29.3674 239.351 29.4101 239.259 29.4236 239.16C29.4372 239.061 29.4209 238.961 29.377 238.871C29.3331 238.782 29.2634 238.708 29.177 238.658L23.874 235.618L28.9996 231.811C29.0523 231.771 29.0967 231.722 29.1304 231.666C29.1641 231.61 29.1863 231.547 29.1959 231.482C29.2055 231.417 29.2022 231.351 29.1862 231.288C29.1702 231.224 29.1418 231.164 29.1026 231.112C29.0635 231.059 29.0144 231.014 28.9581 230.981C28.9018 230.947 28.8394 230.925 28.7745 230.915C28.7095 230.906 28.6434 230.909 28.5798 230.925C28.5161 230.941 28.4563 230.969 28.4036 231.009L22.665 235.271C22.5983 235.321 22.545 235.386 22.5098 235.461C22.4747 235.536 22.4589 235.619 22.4638 235.702C22.4686 235.785 22.4941 235.865 22.5378 235.936C22.5815 236.006 22.6421 236.065 22.7142 236.106L28.6794 239.526C28.792 239.59 28.9252 239.608 29.051 239.577Z" fill="#F2E093"/>
<path d="M37.5658 242.458C37.6142 242.445 37.6604 242.426 37.7028 242.4C37.759 242.366 37.8079 242.321 37.8467 242.268C37.8855 242.215 37.9135 242.155 37.9291 242.091C37.9446 242.027 37.9474 241.961 37.9374 241.896C37.9273 241.831 37.9045 241.769 37.8703 241.713L29.7149 228.304C29.6455 228.192 29.5344 228.111 29.4058 228.08C29.2772 228.049 29.1415 228.07 29.0286 228.139C28.9156 228.208 28.8345 228.319 28.803 228.447C28.7715 228.576 28.7921 228.712 28.8605 228.825L37.0159 242.233C37.0716 242.324 37.155 242.395 37.254 242.436C37.3529 242.476 37.4622 242.484 37.5658 242.458V242.458Z" fill="#F2E093"/>
<path d="M149.466 79.018C151.59 94.1281 159.625 107.777 171.806 116.966C183.988 126.155 199.319 130.132 214.431 128.024C229.544 125.916 243.201 117.894 252.402 105.722C261.603 93.5499 265.596 78.2227 263.503 63.1083L263.389 62.2915C260.954 47.381 252.755 34.0252 240.561 25.1053C228.367 16.1854 213.156 12.4162 198.208 14.6109C183.26 16.8056 169.774 24.7882 160.659 36.8368C151.544 48.8854 147.53 64.0343 149.484 79.0155L149.466 79.018Z" fill="#FFB6B6"/>
<path d="M261.978 102.5C268.448 100.998 268.104 59.7812 271.884 54.3197C275.664 48.8582 275.613 40.4063 270.389 36.3034C267.828 34.2917 264.426 33.5355 261.978 31.3879C260.459 30.0556 259.409 28.2698 258.984 26.2948C258.56 24.3197 258.782 22.2602 259.618 20.4212C260.455 18.5822 261.861 17.0613 263.629 16.0836C265.397 15.1059 267.432 14.7234 269.435 14.9926L251.868 12.8568L257.068 3.37715C253.309 6.36146 248.064 6.77866 243.337 5.94387C238.61 5.10908 234.154 3.17888 229.528 1.89717C207.321 -4.25583 181.572 6.65804 170.551 26.8953C166.225 25.4669 161.567 25.3866 157.195 26.665C152.822 27.9434 148.941 30.5202 146.067 34.0539C141.386 40.0356 140.134 48.0014 139.978 55.595C139.686 70.5676 143 85.3907 149.64 98.8135C151.71 102.985 154.156 107.077 157.674 110.128C161.191 113.18 209.412 130.797 214 130" fill="#2F2E41"/>
</svg>
