<svg width="462" height="365" viewBox="0 0 462 365" fill="none" xmlns="http://www.w3.org/2000/svg">
<path d="M132 245.99C131.999 249.432 132.419 252.843 133.236 256.037C133.55 257.275 133.925 258.474 134.357 259.621C134.915 261.117 135.563 262.526 136.292 263.829C137.901 266.711 139.883 269.02 142.105 270.602C144.327 272.183 146.739 273.001 149.179 273H399.821C404.377 273 408.747 270.155 411.968 265.092C415.19 260.028 417 253.161 417 246C417 238.839 415.19 231.972 411.968 226.908C408.747 221.845 404.377 219 399.821 219H149.179C144.625 219.007 140.259 221.853 137.039 226.912C133.818 231.972 132.006 238.833 132 245.99Z" fill="#E6E6E6"/>
<path d="M0 262C5.43233 272.311 11.308 282.002 17.584 291H444.416C450.692 282.002 456.568 272.311 462 262H0Z" fill="#3F3D56"/>
<path d="M185.16 164.8V267.36H257.01V164.8C257.011 164.062 256.776 163.344 256.339 162.75C255.901 162.156 255.285 161.718 254.58 161.5C254.248 161.39 253.9 161.336 253.55 161.34H188.63C188.175 161.339 187.724 161.428 187.303 161.601C186.883 161.775 186.5 162.029 186.178 162.351C185.856 162.672 185.6 163.054 185.425 163.474C185.251 163.894 185.161 164.345 185.16 164.8ZM213.2 200.04C213.219 198.018 214.035 196.085 215.472 194.662C216.908 193.239 218.848 192.441 220.87 192.441C222.892 192.441 224.832 193.239 226.269 194.662C227.705 196.085 228.521 198.018 228.54 200.04V211.94C228.53 213.967 227.717 215.908 226.28 217.338C224.843 218.768 222.898 219.571 220.87 219.571C218.843 219.571 216.898 218.768 215.46 217.338C214.023 215.908 213.211 213.967 213.2 211.94V200.04Z" fill="#2F2E41"/>
<path d="M184.94 264.08V273.97C184.942 274.482 185.145 274.973 185.506 275.337C185.868 275.7 186.358 275.906 186.87 275.91H255.3C255.813 275.908 256.304 275.702 256.665 275.338C257.027 274.975 257.23 274.483 257.23 273.97V264.08H184.94Z" fill="#3F3D56"/>
<path d="M72.1299 10.28V197.54C72.1318 199.926 73.0806 202.214 74.768 203.902C76.4554 205.589 78.7435 206.538 81.1299 206.54H358.63C361.016 206.538 363.304 205.589 364.992 203.902C366.679 202.215 367.628 199.926 367.63 197.54V10.28C367.624 7.89575 366.674 5.61091 364.987 3.9259C363.3 2.24089 361.014 1.29307 358.63 1.29004H81.1299C78.7456 1.29308 76.4597 2.2409 74.7728 3.9259C73.0859 5.61091 72.1356 7.89575 72.1299 10.28V10.28Z" fill="#3F3D56"/>
<path d="M78.6401 12.61V195.23C78.6423 196.505 79.1498 197.727 80.0514 198.629C80.9529 199.53 82.1751 200.038 83.4501 200.04H356.32C357.595 200.038 358.817 199.53 359.719 198.629C360.62 197.727 361.128 196.505 361.13 195.23V12.61C361.13 11.3335 360.624 10.1091 359.722 9.20544C358.82 8.30183 357.597 7.79281 356.32 7.79004H83.4501C82.1736 7.79282 80.9502 8.30187 80.0485 9.20547C79.1468 10.1091 78.6403 11.3335 78.6401 12.61Z" fill="#F2E093"/>
<path d="M134.28 278.24C134.558 278.588 134.911 278.869 135.313 279.061C135.714 279.254 136.155 279.352 136.6 279.35H298.94C299.384 279.35 299.822 279.25 300.223 279.059C300.624 278.868 300.977 278.589 301.256 278.245C301.536 277.9 301.735 277.497 301.84 277.066C301.944 276.634 301.951 276.185 301.86 275.75L299.34 263.78C299.236 263.292 299.011 262.838 298.686 262.459C298.361 262.08 297.946 261.788 297.48 261.61C297.142 261.478 296.783 261.41 296.42 261.41H139.11C138.747 261.41 138.388 261.478 138.05 261.61C137.584 261.788 137.169 262.08 136.844 262.459C136.519 262.838 136.294 263.292 136.19 263.78L133.67 275.75C133.58 276.184 133.589 276.633 133.694 277.064C133.8 277.495 134 277.896 134.28 278.24Z" fill="#2F2E41"/>
<path d="M290.755 266.566H294.779C295.048 266.566 295.267 266.347 295.267 266.078V264.054C295.267 263.784 295.048 263.566 294.779 263.566H290.755C290.486 263.566 290.267 263.784 290.267 264.054V266.078C290.267 266.347 290.486 266.566 290.755 266.566Z" fill="#3F3D56"/>
<path d="M280.755 266.566H284.779C285.049 266.566 285.267 266.347 285.267 266.078V264.054C285.267 263.784 285.049 263.566 284.779 263.566H280.755C280.486 263.566 280.267 263.784 280.267 264.054V266.078C280.267 266.347 280.486 266.566 280.755 266.566Z" fill="#3F3D56"/>
<path d="M270.755 266.566H274.779C275.049 266.566 275.267 266.347 275.267 266.078V264.054C275.267 263.784 275.049 263.566 274.779 263.566H270.755C270.486 263.566 270.267 263.784 270.267 264.054V266.078C270.267 266.347 270.486 266.566 270.755 266.566Z" fill="#3F3D56"/>
<path d="M260.755 266.566H264.779C265.049 266.566 265.267 266.347 265.267 266.078V264.054C265.267 263.784 265.049 263.566 264.779 263.566H260.755C260.486 263.566 260.267 263.784 260.267 264.054V266.078C260.267 266.347 260.486 266.566 260.755 266.566Z" fill="#3F3D56"/>
<path d="M250.755 266.566H254.779C255.049 266.566 255.267 266.347 255.267 266.078V264.054C255.267 263.784 255.049 263.566 254.779 263.566H250.755C250.486 263.566 250.267 263.784 250.267 264.054V266.078C250.267 266.347 250.486 266.566 250.755 266.566Z" fill="#3F3D56"/>
<path d="M240.755 266.566H244.779C245.049 266.566 245.267 266.347 245.267 266.078V264.054C245.267 263.784 245.049 263.566 244.779 263.566H240.755C240.486 263.566 240.267 263.784 240.267 264.054V266.078C240.267 266.347 240.486 266.566 240.755 266.566Z" fill="#3F3D56"/>
<path d="M230.755 266.566H234.779C235.049 266.566 235.267 266.347 235.267 266.078V264.054C235.267 263.784 235.049 263.566 234.779 263.566H230.755C230.486 263.566 230.267 263.784 230.267 264.054V266.078C230.267 266.347 230.486 266.566 230.755 266.566Z" fill="#3F3D56"/>
<path d="M220.755 266.566H224.779C225.049 266.566 225.267 266.347 225.267 266.078V264.054C225.267 263.784 225.049 263.566 224.779 263.566H220.755C220.486 263.566 220.267 263.784 220.267 264.054V266.078C220.267 266.347 220.486 266.566 220.755 266.566Z" fill="#3F3D56"/>
<path d="M210.755 266.566H214.779C215.049 266.566 215.267 266.347 215.267 266.078V264.054C215.267 263.784 215.049 263.566 214.779 263.566H210.755C210.486 263.566 210.267 263.784 210.267 264.054V266.078C210.267 266.347 210.486 266.566 210.755 266.566Z" fill="#3F3D56"/>
<path d="M200.755 266.566H204.779C205.049 266.566 205.267 266.347 205.267 266.078V264.054C205.267 263.784 205.049 263.566 204.779 263.566H200.755C200.486 263.566 200.267 263.784 200.267 264.054V266.078C200.267 266.347 200.486 266.566 200.755 266.566Z" fill="#3F3D56"/>
<path d="M190.755 266.566H194.779C195.049 266.566 195.267 266.347 195.267 266.078V264.054C195.267 263.784 195.049 263.566 194.779 263.566H190.755C190.486 263.566 190.267 263.784 190.267 264.054V266.078C190.267 266.347 190.486 266.566 190.755 266.566Z" fill="#3F3D56"/>
<path d="M180.755 266.566H184.779C185.049 266.566 185.267 266.347 185.267 266.078V264.054C185.267 263.784 185.049 263.566 184.779 263.566H180.755C180.486 263.566 180.267 263.784 180.267 264.054V266.078C180.267 266.347 180.486 266.566 180.755 266.566Z" fill="#3F3D56"/>
<path d="M170.755 266.566H174.779C175.049 266.566 175.267 266.347 175.267 266.078V264.054C175.267 263.784 175.049 263.566 174.779 263.566H170.755C170.486 263.566 170.267 263.784 170.267 264.054V266.078C170.267 266.347 170.486 266.566 170.755 266.566Z" fill="#3F3D56"/>
<path d="M160.755 266.566H164.779C165.049 266.566 165.267 266.347 165.267 266.078V264.054C165.267 263.784 165.049 263.566 164.779 263.566H160.755C160.486 263.566 160.267 263.784 160.267 264.054V266.078C160.267 266.347 160.486 266.566 160.755 266.566Z" fill="#3F3D56"/>
<path d="M150.755 266.566H154.779C155.049 266.566 155.267 266.347 155.267 266.078V264.054C155.267 263.784 155.049 263.566 154.779 263.566H150.755C150.486 263.566 150.267 263.784 150.267 264.054V266.078C150.267 266.347 150.486 266.566 150.755 266.566Z" fill="#3F3D56"/>
<path d="M140.755 266.566H144.779C145.049 266.566 145.267 266.347 145.267 266.078V264.054C145.267 263.784 145.049 263.566 144.779 263.566H140.755C140.486 263.566 140.267 263.784 140.267 264.054V266.078C140.267 266.347 140.486 266.566 140.755 266.566Z" fill="#3F3D56"/>
<path d="M290.873 271.566H294.897C295.167 271.566 295.385 271.347 295.385 271.078V269.054C295.385 268.784 295.167 268.566 294.897 268.566H290.873C290.604 268.566 290.385 268.784 290.385 269.054V271.078C290.385 271.347 290.604 271.566 290.873 271.566Z" fill="#3F3D56"/>
<path d="M280.873 271.566H284.897C285.167 271.566 285.385 271.347 285.385 271.078V269.054C285.385 268.784 285.167 268.566 284.897 268.566H280.873C280.604 268.566 280.385 268.784 280.385 269.054V271.078C280.385 271.347 280.604 271.566 280.873 271.566Z" fill="#3F3D56"/>
<path d="M270.873 271.566H274.897C275.167 271.566 275.385 271.347 275.385 271.078V269.054C275.385 268.784 275.167 268.566 274.897 268.566H270.873C270.604 268.566 270.385 268.784 270.385 269.054V271.078C270.385 271.347 270.604 271.566 270.873 271.566Z" fill="#3F3D56"/>
<path d="M260.873 271.566H264.897C265.167 271.566 265.385 271.347 265.385 271.078V269.054C265.385 268.784 265.167 268.566 264.897 268.566H260.873C260.604 268.566 260.385 268.784 260.385 269.054V271.078C260.385 271.347 260.604 271.566 260.873 271.566Z" fill="#3F3D56"/>
<path d="M250.873 271.566H254.897C255.167 271.566 255.385 271.347 255.385 271.078V269.054C255.385 268.784 255.167 268.566 254.897 268.566H250.873C250.604 268.566 250.385 268.784 250.385 269.054V271.078C250.385 271.347 250.604 271.566 250.873 271.566Z" fill="#3F3D56"/>
<path d="M240.873 271.566H244.897C245.167 271.566 245.385 271.347 245.385 271.078V269.054C245.385 268.784 245.167 268.566 244.897 268.566H240.873C240.604 268.566 240.385 268.784 240.385 269.054V271.078C240.385 271.347 240.604 271.566 240.873 271.566Z" fill="#3F3D56"/>
<path d="M230.873 271.566H234.897C235.167 271.566 235.385 271.347 235.385 271.078V269.054C235.385 268.784 235.167 268.566 234.897 268.566H230.873C230.604 268.566 230.385 268.784 230.385 269.054V271.078C230.385 271.347 230.604 271.566 230.873 271.566Z" fill="#3F3D56"/>
<path d="M220.873 271.566H224.897C225.167 271.566 225.385 271.347 225.385 271.078V269.054C225.385 268.784 225.167 268.566 224.897 268.566H220.873C220.604 268.566 220.385 268.784 220.385 269.054V271.078C220.385 271.347 220.604 271.566 220.873 271.566Z" fill="#3F3D56"/>
<path d="M210.873 271.566H214.897C215.167 271.566 215.385 271.347 215.385 271.078V269.054C215.385 268.784 215.167 268.566 214.897 268.566H210.873C210.604 268.566 210.385 268.784 210.385 269.054V271.078C210.385 271.347 210.604 271.566 210.873 271.566Z" fill="#3F3D56"/>
<path d="M200.873 271.566H204.897C205.167 271.566 205.385 271.347 205.385 271.078V269.054C205.385 268.784 205.167 268.566 204.897 268.566H200.873C200.604 268.566 200.385 268.784 200.385 269.054V271.078C200.385 271.347 200.604 271.566 200.873 271.566Z" fill="#3F3D56"/>
<path d="M190.873 271.566H194.897C195.167 271.566 195.385 271.347 195.385 271.078V269.054C195.385 268.784 195.167 268.566 194.897 268.566H190.873C190.604 268.566 190.385 268.784 190.385 269.054V271.078C190.385 271.347 190.604 271.566 190.873 271.566Z" fill="#3F3D56"/>
<path d="M180.873 271.566H184.897C185.167 271.566 185.385 271.347 185.385 271.078V269.054C185.385 268.784 185.167 268.566 184.897 268.566H180.873C180.604 268.566 180.385 268.784 180.385 269.054V271.078C180.385 271.347 180.604 271.566 180.873 271.566Z" fill="#3F3D56"/>
<path d="M170.873 271.566H174.897C175.167 271.566 175.385 271.347 175.385 271.078V269.054C175.385 268.784 175.167 268.566 174.897 268.566H170.873C170.604 268.566 170.385 268.784 170.385 269.054V271.078C170.385 271.347 170.604 271.566 170.873 271.566Z" fill="#3F3D56"/>
<path d="M160.873 271.566H164.897C165.167 271.566 165.385 271.347 165.385 271.078V269.054C165.385 268.784 165.167 268.566 164.897 268.566H160.873C160.604 268.566 160.385 268.784 160.385 269.054V271.078C160.385 271.347 160.604 271.566 160.873 271.566Z" fill="#3F3D56"/>
<path d="M150.873 271.566H154.897C155.167 271.566 155.385 271.347 155.385 271.078V269.054C155.385 268.784 155.167 268.566 154.897 268.566H150.873C150.604 268.566 150.385 268.784 150.385 269.054V271.078C150.385 271.347 150.604 271.566 150.873 271.566Z" fill="#3F3D56"/>
<path d="M140.873 271.566H144.897C145.167 271.566 145.385 271.347 145.385 271.078V269.054C145.385 268.784 145.167 268.566 144.897 268.566H140.873C140.604 268.566 140.385 268.784 140.385 269.054V271.078C140.385 271.347 140.604 271.566 140.873 271.566Z" fill="#3F3D56"/>
<path d="M207.873 277.566H246.897C247.167 277.566 247.385 277.347 247.385 277.078V275.054C247.385 274.784 247.167 274.566 246.897 274.566H207.873C207.604 274.566 207.385 274.784 207.385 275.054V277.078C207.385 277.347 207.604 277.566 207.873 277.566Z" fill="#3F3D56"/>
<path d="M97.1617 32.9467H352.485C352.751 32.9409 353.003 32.8313 353.189 32.6416C353.374 32.4518 353.478 32.1969 353.478 31.9314C353.478 31.6659 353.374 31.4109 353.189 31.2212C353.003 31.0314 352.751 30.9218 352.485 30.916H97.1617C96.8963 30.9218 96.6437 31.0314 96.4581 31.2212C96.2724 31.4109 96.1685 31.6659 96.1685 31.9314C96.1685 32.1969 96.2724 32.4518 96.4581 32.6416C96.6437 32.8313 96.8963 32.9409 97.1617 32.9467Z" fill="#3F3D56"/>
<path d="M335.105 25.7319C338.392 25.7319 341.056 23.0084 341.056 19.6488C341.056 16.2893 338.392 13.5658 335.105 13.5658C331.819 13.5658 329.155 16.2893 329.155 19.6488C329.155 23.0084 331.819 25.7319 335.105 25.7319Z" fill="#3F3D56"/>
<path d="M314.549 25.7319C317.835 25.7319 320.499 23.0084 320.499 19.6488C320.499 16.2893 317.835 13.5658 314.549 13.5658C311.263 13.5658 308.599 16.2893 308.599 19.6488C308.599 23.0084 311.263 25.7319 314.549 25.7319Z" fill="#3F3D56"/>
<path d="M293.993 25.7319C297.279 25.7319 299.943 23.0084 299.943 19.6488C299.943 16.2893 297.279 13.5658 293.993 13.5658C290.707 13.5658 288.042 16.2893 288.042 19.6488C288.042 23.0084 290.707 25.7319 293.993 25.7319Z" fill="#3F3D56"/>
<path d="M108.45 16.1801C108.45 16.3239 108.477 16.4664 108.532 16.5995C108.586 16.7326 108.666 16.8537 108.767 16.9559C108.869 17.058 108.989 17.1392 109.122 17.1949C109.254 17.2505 109.396 17.2794 109.54 17.2801H124.14C124.429 17.2733 124.703 17.154 124.905 16.9475C125.107 16.741 125.22 16.4638 125.22 16.1751C125.22 15.8864 125.107 15.6091 124.905 15.4026C124.703 15.1962 124.429 15.0768 124.14 15.0701H109.54C109.249 15.0736 108.971 15.1923 108.766 15.4003C108.562 15.6083 108.448 15.8886 108.45 16.1801V16.1801Z" fill="#3F3D56"/>
<path d="M108.45 20.33C108.45 20.4738 108.477 20.6163 108.532 20.7495C108.586 20.8826 108.666 21.0037 108.767 21.1058C108.869 21.208 108.989 21.2892 109.122 21.3448C109.254 21.4004 109.396 21.4294 109.54 21.43H124.14C124.429 21.4236 124.704 21.3044 124.906 21.0978C125.108 20.8913 125.221 20.6139 125.221 20.325C125.221 20.0361 125.108 19.7587 124.906 19.5521C124.704 19.3456 124.429 19.2264 124.14 19.22H109.54C109.249 19.2235 108.971 19.3422 108.766 19.5502C108.562 19.7582 108.448 20.0385 108.45 20.33V20.33Z" fill="#3F3D56"/>
<path d="M108.45 24.47C108.448 24.7615 108.562 25.0418 108.766 25.2498C108.971 25.4578 109.249 25.5765 109.54 25.58H124.14C124.429 25.5733 124.703 25.4539 124.905 25.2474C125.107 25.0409 125.22 24.7637 125.22 24.475C125.22 24.1863 125.107 23.9091 124.905 23.7026C124.703 23.4961 124.429 23.3767 124.14 23.37H109.54C109.396 23.3706 109.254 23.3996 109.122 23.4552C108.989 23.5108 108.869 23.592 108.767 23.6942C108.666 23.7963 108.586 23.9174 108.532 24.0505C108.477 24.1837 108.45 24.3262 108.45 24.47V24.47Z" fill="#3F3D56"/>
<path d="M112.962 56.5432H107.716C106.125 56.5432 104.836 57.8326 104.836 59.4232C104.836 61.0137 106.125 62.3031 107.716 62.3031H112.962C114.553 62.3031 115.842 61.0137 115.842 59.4232C115.842 57.8326 114.553 56.5432 112.962 56.5432Z" fill="#E6E6E6"/>
<path d="M172.962 56.5432H167.716C166.125 56.5432 164.836 57.8326 164.836 59.4232C164.836 61.0137 166.125 62.3031 167.716 62.3031H172.962C174.553 62.3031 175.842 61.0137 175.842 59.4232C175.842 57.8326 174.553 56.5432 172.962 56.5432Z" fill="#E6E6E6"/>
<path d="M189.962 56.5432H184.716C183.125 56.5432 181.836 57.8326 181.836 59.4232C181.836 61.0137 183.125 62.3031 184.716 62.3031H189.962C191.553 62.3031 192.842 61.0137 192.842 59.4232C192.842 57.8326 191.553 56.5432 189.962 56.5432Z" fill="#E6E6E6"/>
<path d="M156.642 56.0632H124.036C122.446 56.0632 121.156 57.3526 121.156 58.9432C121.156 60.5338 122.446 61.8232 124.036 61.8232H156.642C158.233 61.8232 159.522 60.5338 159.522 58.9432C159.522 57.3526 158.233 56.0632 156.642 56.0632Z" fill="#E6E6E6"/>
<path d="M236.642 56.0632H204.036C202.446 56.0632 201.156 57.3526 201.156 58.9432C201.156 60.5338 202.446 61.8232 204.036 61.8232H236.642C238.233 61.8232 239.522 60.5338 239.522 58.9432C239.522 57.3526 238.233 56.0632 236.642 56.0632Z" fill="#E6E6E6"/>
<path d="M128.962 69.5432H123.716C122.125 69.5432 120.836 70.8326 120.836 72.4232C120.836 74.0137 122.125 75.3031 123.716 75.3031H128.962C130.553 75.3031 131.842 74.0137 131.842 72.4232C131.842 70.8326 130.553 69.5432 128.962 69.5432Z" fill="#E6E6E6"/>
<path d="M188.962 69.5432H183.716C182.125 69.5432 180.836 70.8326 180.836 72.4232C180.836 74.0137 182.125 75.3031 183.716 75.3031H188.962C190.553 75.3031 191.842 74.0137 191.842 72.4232C191.842 70.8326 190.553 69.5432 188.962 69.5432Z" fill="#E6E6E6"/>
<path d="M205.962 69.5432H200.716C199.125 69.5432 197.836 70.8326 197.836 72.4232C197.836 74.0137 199.125 75.3031 200.716 75.3031H205.962C207.553 75.3031 208.842 74.0137 208.842 72.4232C208.842 70.8326 207.553 69.5432 205.962 69.5432Z" fill="#E6E6E6"/>
<path d="M172.642 69.0632H140.036C138.446 69.0632 137.156 70.3526 137.156 71.9432C137.156 73.5338 138.446 74.8232 140.036 74.8232H172.642C174.233 74.8232 175.522 73.5338 175.522 71.9432C175.522 70.3526 174.233 69.0632 172.642 69.0632Z" fill="#E6E6E6"/>
<path d="M252.642 69.0632H220.036C218.446 69.0632 217.156 70.3526 217.156 71.9432C217.156 73.5338 218.446 74.8232 220.036 74.8232H252.642C254.233 74.8232 255.522 73.5338 255.522 71.9432C255.522 70.3526 254.233 69.0632 252.642 69.0632Z" fill="#E6E6E6"/>
<path d="M144.962 82.5432H139.716C138.125 82.5432 136.836 83.8326 136.836 85.4232C136.836 87.0137 138.125 88.3031 139.716 88.3031H144.962C146.553 88.3031 147.842 87.0137 147.842 85.4232C147.842 83.8326 146.553 82.5432 144.962 82.5432Z" fill="#E6E6E6"/>
<path d="M204.962 82.5432H199.716C198.125 82.5432 196.836 83.8326 196.836 85.4232C196.836 87.0137 198.125 88.3031 199.716 88.3031H204.962C206.553 88.3031 207.842 87.0137 207.842 85.4232C207.842 83.8326 206.553 82.5432 204.962 82.5432Z" fill="#E6E6E6"/>
<path d="M221.962 82.5432H216.716C215.125 82.5432 213.836 83.8326 213.836 85.4232C213.836 87.0137 215.125 88.3031 216.716 88.3031H221.962C223.553 88.3031 224.842 87.0137 224.842 85.4232C224.842 83.8326 223.553 82.5432 221.962 82.5432Z" fill="#E6E6E6"/>
<path d="M188.642 82.0632H156.036C154.446 82.0632 153.156 83.3526 153.156 84.9432C153.156 86.5338 154.446 87.8232 156.036 87.8232H188.642C190.233 87.8232 191.522 86.5338 191.522 84.9432C191.522 83.3526 190.233 82.0632 188.642 82.0632Z" fill="#E6E6E6"/>
<path d="M268.642 82.0632H236.036C234.446 82.0632 233.156 83.3526 233.156 84.9432C233.156 86.5338 234.446 87.8232 236.036 87.8232H268.642C270.233 87.8232 271.522 86.5338 271.522 84.9432C271.522 83.3526 270.233 82.0632 268.642 82.0632Z" fill="#E6E6E6"/>
<path d="M160.962 95.5432H155.716C154.125 95.5432 152.836 96.8326 152.836 98.4232C152.836 100.014 154.125 101.303 155.716 101.303H160.962C162.553 101.303 163.842 100.014 163.842 98.4232C163.842 96.8326 162.553 95.5432 160.962 95.5432Z" fill="#E6E6E6"/>
<path d="M220.962 95.5432H215.716C214.125 95.5432 212.836 96.8326 212.836 98.4232C212.836 100.014 214.125 101.303 215.716 101.303H220.962C222.553 101.303 223.842 100.014 223.842 98.4232C223.842 96.8326 222.553 95.5432 220.962 95.5432Z" fill="#E6E6E6"/>
<path d="M237.962 95.5432H232.716C231.125 95.5432 229.836 96.8326 229.836 98.4232C229.836 100.014 231.125 101.303 232.716 101.303H237.962C239.553 101.303 240.842 100.014 240.842 98.4232C240.842 96.8326 239.553 95.5432 237.962 95.5432Z" fill="#E6E6E6"/>
<path d="M204.642 95.0632H172.036C170.446 95.0632 169.156 96.3526 169.156 97.9432C169.156 99.5338 170.446 100.823 172.036 100.823H204.642C206.233 100.823 207.522 99.5338 207.522 97.9432C207.522 96.3526 206.233 95.0632 204.642 95.0632Z" fill="#E6E6E6"/>
<path d="M172.962 147.237H167.716C166.125 147.237 164.836 148.526 164.836 150.117C164.836 151.707 166.125 152.997 167.716 152.997H172.962C174.553 152.997 175.842 151.707 175.842 150.117C175.842 148.526 174.553 147.237 172.962 147.237Z" fill="#E6E6E6"/>
<path d="M189.962 147.237H184.716C183.125 147.237 181.836 148.526 181.836 150.117C181.836 151.707 183.125 152.997 184.716 152.997H189.962C191.553 152.997 192.842 151.707 192.842 150.117C192.842 148.526 191.553 147.237 189.962 147.237Z" fill="#E6E6E6"/>
<path d="M236.642 147.717H204.036C202.446 147.717 201.156 149.006 201.156 150.597C201.156 152.188 202.446 153.477 204.036 153.477H236.642C238.233 153.477 239.522 152.188 239.522 150.597C239.522 149.006 238.233 147.717 236.642 147.717Z" fill="#E6E6E6"/>
<path d="M112.962 147.237H107.716C106.125 147.237 104.836 148.526 104.836 150.117C104.836 151.707 106.125 152.997 107.716 152.997H112.962C114.553 152.997 115.842 151.707 115.842 150.117C115.842 148.526 114.553 147.237 112.962 147.237Z" fill="#E6E6E6"/>
<path d="M156.642 147.717H124.036C122.446 147.717 121.156 149.006 121.156 150.597C121.156 152.188 122.446 153.477 124.036 153.477H156.642C158.233 153.477 159.522 152.188 159.522 150.597C159.522 149.006 158.233 147.717 156.642 147.717Z" fill="#E6E6E6"/>
<path d="M128.962 134.237H123.716C122.125 134.237 120.836 135.526 120.836 137.117C120.836 138.707 122.125 139.997 123.716 139.997H128.962C130.553 139.997 131.842 138.707 131.842 137.117C131.842 135.526 130.553 134.237 128.962 134.237Z" fill="#E6E6E6"/>
<path d="M188.962 134.237H183.716C182.125 134.237 180.836 135.526 180.836 137.117C180.836 138.707 182.125 139.997 183.716 139.997H188.962C190.553 139.997 191.842 138.707 191.842 137.117C191.842 135.526 190.553 134.237 188.962 134.237Z" fill="#E6E6E6"/>
<path d="M205.962 134.237H200.716C199.125 134.237 197.836 135.526 197.836 137.117C197.836 138.707 199.125 139.997 200.716 139.997H205.962C207.553 139.997 208.842 138.707 208.842 137.117C208.842 135.526 207.553 134.237 205.962 134.237Z" fill="#E6E6E6"/>
<path d="M172.642 134.717H140.036C138.446 134.717 137.156 136.006 137.156 137.597C137.156 139.188 138.446 140.477 140.036 140.477H172.642C174.233 140.477 175.522 139.188 175.522 137.597C175.522 136.006 174.233 134.717 172.642 134.717Z" fill="#E6E6E6"/>
<path d="M144.962 121.237H139.716C138.125 121.237 136.836 122.526 136.836 124.117C136.836 125.707 138.125 126.997 139.716 126.997H144.962C146.553 126.997 147.842 125.707 147.842 124.117C147.842 122.526 146.553 121.237 144.962 121.237Z" fill="#E6E6E6"/>
<path d="M204.962 121.237H199.716C198.125 121.237 196.836 122.526 196.836 124.117C196.836 125.707 198.125 126.997 199.716 126.997H204.962C206.553 126.997 207.842 125.707 207.842 124.117C207.842 122.526 206.553 121.237 204.962 121.237Z" fill="#E6E6E6"/>
<path d="M221.962 121.237H216.716C215.125 121.237 213.836 122.526 213.836 124.117C213.836 125.707 215.125 126.997 216.716 126.997H221.962C223.553 126.997 224.842 125.707 224.842 124.117C224.842 122.526 223.553 121.237 221.962 121.237Z" fill="#E6E6E6"/>
<path d="M188.642 121.717H156.036C154.446 121.717 153.156 123.006 153.156 124.597C153.156 126.188 154.446 127.477 156.036 127.477H188.642C190.233 127.477 191.522 126.188 191.522 124.597C191.522 123.006 190.233 121.717 188.642 121.717Z" fill="#E6E6E6"/>
<path d="M160.962 108.237H155.716C154.125 108.237 152.836 109.526 152.836 111.117C152.836 112.707 154.125 113.997 155.716 113.997H160.962C162.553 113.997 163.842 112.707 163.842 111.117C163.842 109.526 162.553 108.237 160.962 108.237Z" fill="#E6E6E6"/>
<path d="M220.962 108.237H215.716C214.125 108.237 212.836 109.526 212.836 111.117C212.836 112.707 214.125 113.997 215.716 113.997H220.962C222.553 113.997 223.842 112.707 223.842 111.117C223.842 109.526 222.553 108.237 220.962 108.237Z" fill="#E6E6E6"/>
<path d="M237.962 108.237H232.716C231.125 108.237 229.836 109.526 229.836 111.117C229.836 112.707 231.125 113.997 232.716 113.997H237.962C239.553 113.997 240.842 112.707 240.842 111.117C240.842 109.526 239.553 108.237 237.962 108.237Z" fill="#E6E6E6"/>
<path d="M204.642 108.717H172.036C170.446 108.717 169.156 110.006 169.156 111.597C169.156 113.188 170.446 114.477 172.036 114.477H204.642C206.233 114.477 207.522 113.188 207.522 111.597C207.522 110.006 206.233 108.717 204.642 108.717Z" fill="#E6E6E6"/>
<path d="M94.1001 335.04C94.7101 335.35 95.3301 335.66 95.9401 335.96C111.74 343.86 124.38 348.35 141.67 353.27C143.13 336.97 144.54 308.32 145.91 290.56C146.27 285.95 146.63 282.08 146.98 279.35C147.068 277.899 147.365 276.467 147.86 275.1L147.8 279.35L147.65 290.56L146.78 354.67C168.288 360.361 190.381 363.545 212.62 364.16C213.78 364.19 214.92 364.21 216.02 364.23C216.41 364.24 216.79 364.25 217.17 364.25C218.42 364.26 219.66 364.27 220.91 364.27C244.346 364.287 267.697 361.457 290.45 355.84C289.96 339.71 289.47 311.38 289 290.56C288.9 286.49 288.81 282.7 288.71 279.35C288.52 272.19 288.32 267.03 288.13 265.3C288.298 265.607 288.429 265.932 288.52 266.27C289.446 270.582 290.078 274.952 290.41 279.35C290.76 282.7 291.11 286.49 291.46 290.56C293.32 312.19 295.26 341.6 297.26 354.07C309.164 350.82 320.846 346.802 332.23 342.04C338.23 339.54 344.123 336.843 349.91 333.95C348.81 326.75 347.66 318.68 346.48 310.31C345.56 303.82 344.61 297.15 343.64 290.56C342.14 280.38 319.85 209.24 318.44 206.54C317.23 204.23 316.08 202.05 314.99 200.04C312.35 195.16 310.11 191.27 308.45 188.81C301.51 178.283 291.178 170.446 279.17 166.6L278.87 166.52L278.66 166.61L258.21 160.33L255.22 159.41L253.21 158.79L246.13 153.4L242.28 150.47L238.67 147.72L231.61 142.35L187.9 145.04L179.39 165.53L160.33 172.5L160 172.35L159.71 172.23L159.41 172.31C147.404 176.159 137.073 183.996 130.13 194.52C129.19 195.93 128.05 197.79 126.76 200.04C125.66 201.95 124.46 204.13 123.16 206.54C121.31 209.97 119.29 213.84 117.15 218.03C116.68 218.95 116.2 219.89 115.72 220.84C114.83 222.6 113.927 224.397 113.01 226.23C110.88 230.48 108.68 234.92 106.48 239.43C104.57 243.34 102.64 251.38 100.74 261.61C99.1702 270.11 97.6102 280.13 96.1002 290.56C94.1202 304.08 96.2302 320.27 94.4402 332.71C94.3301 333.5 94.2101 334.27 94.1001 335.04Z" fill="#3F3D56"/>
<path opacity="0.2" d="M303.59 261.566L295.093 228.774L287.59 257.07L303.59 261.566Z" fill="black"/>
<path d="M77.48 240.2C80.52 282.08 77.37 300.52 94.15 335.05C109.417 342.523 125.32 348.62 141.67 353.27C143.37 353.75 145.073 354.217 146.78 354.67C168.287 360.361 190.381 363.545 212.62 364.16C213.78 364.19 214.92 364.21 216.02 364.23C216.41 364.24 216.79 364.25 217.17 364.25C218.42 364.26 219.66 364.27 220.91 364.27C244.346 364.287 267.697 361.457 290.45 355.84C292.73 355.28 295 354.69 297.26 354.07C309.164 350.82 320.846 346.802 332.23 342.04C338.23 339.54 344.123 336.843 349.91 333.95C351.22 333.29 352.53 332.63 353.82 331.95C360.45 320.29 364.22 306.11 364.3 289.07C359.71 259.71 87.62 214.88 77.48 240.2Z" fill="#2F2E41"/>
<path opacity="0.2" d="M77.4879 247.372C77.3326 244.779 77.159 242.101 76.9565 239.312C87.0965 213.992 359.187 258.822 363.777 288.182C363.764 290.874 363.649 293.486 363.455 296.037C352.34 267.059 93.8505 224.451 77.4879 247.372Z" fill="black"/>
<path d="M15.8293 261.186C16.2699 262.468 17.1056 263.579 18.2165 264.357C19.3274 265.135 20.6563 265.541 22.0124 265.517L48.5043 264.835C49.8703 264.808 51.191 264.34 52.2691 263.501C53.3471 262.662 54.1245 261.496 54.4851 260.178L58.234 220.091C59.5641 220.693 61.012 220.991 62.4719 220.962C65.0323 220.896 67.4617 219.816 69.2261 217.959C70.9905 216.102 71.9456 213.621 71.8813 211.061C71.817 208.5 70.7387 206.07 68.8833 204.305C67.028 202.539 64.5474 201.582 61.987 201.645C61.4035 201.643 60.8214 201.704 60.2508 201.825C59.6302 201.154 58.8759 200.62 58.0365 200.258C57.197 199.896 56.291 199.713 55.3768 199.722L14.6262 200.775C14.2882 200.787 13.9519 200.829 13.621 200.9C12.7274 201.066 11.8798 201.422 11.1353 201.944C10.3908 202.466 9.76667 203.141 9.30495 203.924C8.84322 204.707 8.5546 205.58 8.45851 206.484C8.36242 207.388 8.46108 208.302 8.74786 209.164L15.8293 261.186ZM59.0028 217.369L61.6704 207.816C61.9739 206.713 61.9809 205.549 61.6908 204.441C61.8202 204.441 61.9344 204.38 62.0638 204.379C63.8929 204.342 65.6624 205.031 66.9843 206.296C68.3061 207.56 69.0725 209.298 69.1153 211.127C69.1581 212.956 68.4739 214.727 67.2128 216.052C65.9516 217.378 64.2163 218.149 62.3874 218.197C61.2049 218.234 60.0347 217.947 59.0028 217.369V217.369Z" fill="#2F2E41"/>
<path d="M13.6211 200.9C14.4893 205.864 24.2502 209.353 35.9869 208.747C46.7796 208.25 55.6044 204.46 57.2212 199.968C56.6228 199.791 56.0006 199.708 55.3768 199.722L14.6263 200.775C14.2882 200.787 13.9519 200.829 13.6211 200.9V200.9Z" fill="#3F3D56"/>
<path d="M38.138 239.157C38.1916 239.144 38.2427 239.121 38.2889 239.091L44.042 235.325C44.1116 235.28 44.1687 235.218 44.2083 235.145C44.2479 235.072 44.2686 234.99 44.2687 234.907C44.2687 234.824 44.248 234.743 44.2085 234.67C44.169 234.597 44.1119 234.535 44.0424 234.489L38.0626 230.572C38.0077 230.536 37.9462 230.511 37.8816 230.499C37.817 230.486 37.7505 230.486 37.6861 230.5C37.6216 230.513 37.5604 230.539 37.506 230.576C37.4516 230.613 37.405 230.66 37.3689 230.715C37.3328 230.77 37.308 230.832 37.2958 230.897C37.2836 230.961 37.2843 231.028 37.2978 231.092C37.3114 231.156 37.3375 231.218 37.3747 231.272C37.4119 231.326 37.4595 231.372 37.5147 231.408L42.8556 234.907L37.7416 238.254C37.6426 238.319 37.5697 238.417 37.536 238.53C37.5023 238.644 37.5099 238.765 37.5574 238.874C37.605 238.982 37.6894 239.07 37.7957 239.122C37.902 239.174 38.0233 239.187 38.138 239.157H38.138Z" fill="#F2E093"/>
<path d="M29.051 239.577C29.1475 239.552 29.2346 239.499 29.301 239.425C29.3674 239.351 29.4101 239.259 29.4236 239.16C29.4372 239.061 29.4209 238.961 29.377 238.871C29.3331 238.782 29.2634 238.708 29.177 238.658L23.874 235.618L28.9996 231.811C29.0523 231.771 29.0967 231.722 29.1304 231.666C29.1641 231.61 29.1863 231.547 29.1959 231.482C29.2055 231.417 29.2022 231.351 29.1862 231.288C29.1702 231.224 29.1418 231.164 29.1026 231.112C29.0635 231.059 29.0144 231.014 28.9581 230.981C28.9018 230.947 28.8394 230.925 28.7745 230.915C28.7095 230.906 28.6434 230.909 28.5798 230.925C28.5161 230.941 28.4563 230.969 28.4036 231.009L22.665 235.271C22.5983 235.321 22.545 235.386 22.5098 235.461C22.4747 235.536 22.4589 235.619 22.4638 235.702C22.4686 235.785 22.4941 235.865 22.5378 235.936C22.5815 236.006 22.6421 236.065 22.7142 236.106L28.6794 239.526C28.792 239.59 28.9252 239.608 29.051 239.577Z" fill="#F2E093"/>
<path d="M37.5658 242.458C37.6142 242.445 37.6604 242.426 37.7028 242.4C37.759 242.366 37.8079 242.321 37.8467 242.268C37.8855 242.215 37.9135 242.155 37.9291 242.091C37.9446 242.027 37.9474 241.961 37.9374 241.896C37.9273 241.831 37.9045 241.769 37.8703 241.713L29.7149 228.304C29.6455 228.192 29.5344 228.111 29.4058 228.08C29.2772 228.049 29.1415 228.07 29.0286 228.139C28.9156 228.208 28.8345 228.319 28.803 228.447C28.7715 228.576 28.7921 228.712 28.8605 228.825L37.0159 242.233C37.0716 242.324 37.155 242.395 37.254 242.436C37.3529 242.476 37.4622 242.484 37.5658 242.458V242.458Z" fill="#F2E093"/>
<path d="M149.466 79.018C151.59 94.1281 159.625 107.777 171.806 116.966C183.988 126.155 199.319 130.132 214.431 128.024C229.544 125.916 243.201 117.894 252.402 105.722C261.603 93.5499 265.596 78.2227 263.503 63.1083L263.389 62.2915C260.954 47.381 252.755 34.0252 240.561 25.1053C228.367 16.1854 213.156 12.4162 198.208 14.6109C183.26 16.8056 169.774 24.7882 160.659 36.8368C151.544 48.8854 147.53 64.0343 149.484 79.0155L149.466 79.018Z" fill="#FFB6B6"/>
<path d="M261.978 102.5C268.448 100.998 268.104 59.7812 271.884 54.3197C275.664 48.8582 275.613 40.4063 270.389 36.3034C267.828 34.2917 264.426 33.5355 261.978 31.3879C260.459 30.0556 259.409 28.2698 258.984 26.2948C258.56 24.3197 258.782 22.2602 259.618 20.4212C260.455 18.5822 261.861 17.0613 263.629 16.0836C265.397 15.1059 267.432 14.7234 269.435 14.9926L251.868 12.8568L257.068 3.37715C253.309 6.36146 248.064 6.77866 243.337 5.94387C238.61 5.10908 234.154 3.17888 229.528 1.89717C207.321 -4.25583 181.572 6.65804 170.551 26.8953C166.225 25.4669 161.567 25.3866 157.195 26.665C152.822 27.9434 148.941 30.5202 146.067 34.0539C141.386 40.0356 140.134 48.0014 139.978 55.595C139.686 70.5676 143 85.3907 149.64 98.8135C151.71 102.985 154.156 107.077 157.674 110.128C161.191 113.18 209.412 130.797 214 130" fill="#2F2E41"/>
</svg>
