<svg width="40" height="32" viewBox="0 0 40 32" fill="none" xmlns="http://www.w3.org/2000/svg">
<path d="M33.4157 2.95658C33.405 2.93433 33.3872 2.9169 33.3655 2.90741C30.8629 1.67877 28.2219 0.802646 25.5086 0.300977C25.484 0.296073 25.4585 0.299611 25.4359 0.311087C25.4132 0.322563 25.3945 0.341392 25.3824 0.364898C25.0228 1.06332 24.6963 1.7807 24.4043 2.51433C21.4795 2.03926 18.5045 2.03926 15.5797 2.51433C15.2858 1.77884 14.9541 1.06127 14.5862 0.364898C14.5736 0.341903 14.5548 0.323507 14.5323 0.312106C14.5097 0.300705 14.4845 0.296827 14.4599 0.300977C11.7463 0.801593 9.10517 1.67778 6.60286 2.90748C6.58144 2.9172 6.56336 2.93379 6.55113 2.95496C1.547 10.9513 0.176181 18.751 0.848659 26.4541C0.85055 26.473 0.855971 26.4912 0.864598 26.5078C0.873225 26.5244 0.884883 26.539 0.898878 26.5507C3.81273 28.8592 7.07192 30.6214 10.5373 31.7619C10.5618 31.7698 10.5878 31.7694 10.612 31.7609C10.6362 31.7524 10.6574 31.7362 10.6728 31.7144C11.4171 30.6308 12.0766 29.4833 12.6446 28.2836C12.6524 28.2672 12.6568 28.2491 12.6577 28.2307C12.6585 28.2122 12.6556 28.1938 12.6493 28.1767C12.643 28.1595 12.6333 28.1439 12.621 28.131C12.6086 28.1181 12.5939 28.1082 12.5777 28.1018C11.5377 27.6761 10.5309 27.1628 9.56664 26.5668C9.54913 26.5558 9.53442 26.5403 9.52381 26.5218C9.5132 26.5033 9.50703 26.4822 9.50583 26.4605C9.50463 26.4388 9.50844 26.4171 9.51693 26.3974C9.52541 26.3776 9.53832 26.3604 9.5545 26.3472C9.75682 26.1851 9.95927 26.0163 10.1525 25.8459C10.1696 25.8308 10.1904 25.8211 10.2124 25.8179C10.2345 25.8147 10.2569 25.8182 10.2772 25.8279C16.5942 28.9128 23.4333 28.9128 29.6756 25.8279C29.6959 25.8176 29.7186 25.8136 29.7409 25.8165C29.7633 25.8194 29.7844 25.8291 29.8019 25.8443C29.9951 26.0147 30.1975 26.1851 30.4014 26.3472C30.4176 26.3603 30.4306 26.3774 30.4393 26.397C30.4479 26.4167 30.4518 26.4384 30.4508 26.4601C30.4497 26.4818 30.4437 26.5029 30.4332 26.5215C30.4228 26.5401 30.4082 26.5557 30.3907 26.5668C29.4287 27.1678 28.4209 27.6807 27.3782 28.1002C27.362 28.1068 27.3473 28.117 27.3351 28.1301C27.3228 28.1432 27.3133 28.1589 27.3071 28.1762C27.3009 28.1935 27.2982 28.212 27.2991 28.2306C27.3001 28.2491 27.3047 28.2672 27.3126 28.2836C27.8901 29.4766 28.5486 30.6227 29.2829 31.7125C29.2978 31.7349 29.3189 31.7517 29.3432 31.7605C29.3675 31.7693 29.3938 31.7697 29.4183 31.7617C32.89 30.625 36.1548 28.8627 39.0723 26.5507C39.0865 26.5396 39.0984 26.5254 39.107 26.509C39.1157 26.4926 39.121 26.4744 39.1226 26.4557C39.9276 17.5501 37.7747 9.81432 33.4157 2.95658ZM13.588 21.7637C11.6861 21.7637 10.119 19.8961 10.119 17.6026C10.119 15.309 11.6557 13.4413 13.588 13.4413C15.5354 13.4413 17.0873 15.3252 17.0569 17.6024C17.0569 19.8961 15.5201 21.7637 13.588 21.7637ZM26.4139 21.7637C24.5121 21.7637 22.945 19.8961 22.945 17.6026C22.945 15.309 24.4817 13.4413 26.4139 13.4413C28.3614 13.4413 29.9133 15.3252 29.8829 17.6024C29.8829 19.8961 28.3614 21.7637 26.4139 21.7637Z" fill="white"/>
</svg>
