<svg width="75" height="79" viewBox="0 0 75 79" fill="none" xmlns="http://www.w3.org/2000/svg">
<mask id="mask0_182_292" style="mask-type:alpha" maskUnits="userSpaceOnUse" x="0" y="0" width="75" height="79">
<rect x="0.137833" y="0.61499" width="74.2302" height="77.4425" rx="20" fill="#C4C4C4"/>
</mask>
<g mask="url(#mask0_182_292)">
<g clip-path="url(#clip0_182_292)">
<path d="M92.6781 -0.417725H-18.6672V77.0248H92.6781V-0.417725Z" fill="#FF9933"/>
<path d="M92.6781 25.3965H-18.6672V51.2106H92.6781V25.3965Z" fill="white"/>
<path d="M92.6781 51.2107H-18.6672V77.0249H92.6781V51.2107Z" fill="#128807"/>
<path d="M37.0055 48.6291C42.4716 48.6291 46.9028 44.0062 46.9028 38.3034C46.9028 32.6007 42.4716 27.9778 37.0055 27.9778C31.5393 27.9778 27.1081 32.6007 27.1081 38.3034C27.1081 44.0062 31.5393 48.6291 37.0055 48.6291Z" fill="#000088"/>
<path d="M37.0054 47.3385C41.7883 47.3385 45.6656 43.2934 45.6656 38.3035C45.6656 33.3136 41.7883 29.2686 37.0054 29.2686C32.2226 29.2686 28.3453 33.3136 28.3453 38.3035C28.3453 43.2934 32.2226 47.3385 37.0054 47.3385Z" fill="white"/>
<path d="M37.0055 40.1104C37.9621 40.1104 38.7375 39.3013 38.7375 38.3033C38.7375 37.3054 37.9621 36.4963 37.0055 36.4963C36.0489 36.4963 35.2734 37.3054 35.2734 38.3033C35.2734 39.3013 36.0489 40.1104 37.0055 40.1104Z" fill="#000088"/>
</g>
</g>
<defs>
<clipPath id="clip0_182_292">
<rect width="111.345" height="77.4425" fill="white" transform="translate(-18.6672 -0.417725)"/>
</clipPath>
</defs>
</svg>
