<svg width="33" height="34" viewBox="0 0 33 34" fill="none" xmlns="http://www.w3.org/2000/svg">
<path d="M16.6736 8.34831C12.1799 8.34831 8.55525 12.1307 8.55525 16.8199C8.55525 21.5091 12.1799 25.2915 16.6736 25.2915C21.1674 25.2915 24.792 21.5091 24.792 16.8199C24.792 12.1307 21.1674 8.34831 16.6736 8.34831ZM16.6736 22.3275C13.7697 22.3275 11.3956 19.8576 11.3956 16.8199C11.3956 13.7822 13.7626 11.3123 16.6736 11.3123C19.5847 11.3123 21.9516 13.7822 21.9516 16.8199C21.9516 19.8576 19.5776 22.3275 16.6736 22.3275V22.3275ZM27.0177 8.00178C27.0177 9.10035 26.1698 9.97774 25.1241 9.97774C24.0713 9.97774 23.2305 9.09298 23.2305 8.00178C23.2305 6.91057 24.0784 6.02581 25.1241 6.02581C26.1698 6.02581 27.0177 6.91057 27.0177 8.00178ZM32.3946 10.0072C32.2745 7.36033 31.6951 5.01571 29.8368 3.08398C27.9857 1.15225 25.7388 0.547667 23.2022 0.414953C20.588 0.26012 12.7522 0.26012 10.1379 0.414953C7.60846 0.540294 5.3616 1.14488 3.50335 3.07661C1.6451 5.00834 1.07278 7.35295 0.945603 9.99986C0.797226 12.7279 0.797226 20.9045 0.945603 23.6325C1.06572 26.2795 1.6451 28.6241 3.50335 30.5558C5.3616 32.4875 7.6014 33.0921 10.1379 33.2248C12.7522 33.3797 20.588 33.3797 23.2022 33.2248C25.7388 33.0995 27.9857 32.4949 29.8368 30.5558C31.688 28.6241 32.2674 26.2795 32.3946 23.6325C32.543 20.9045 32.543 12.7352 32.3946 10.0072V10.0072ZM29.0172 26.5596C28.4661 28.0047 27.3992 29.1181 26.0073 29.7005C23.9229 30.5632 18.977 30.3641 16.6736 30.3641C14.3702 30.3641 9.41726 30.5558 7.33997 29.7005C5.95511 29.1254 4.88821 28.0121 4.33003 26.5596C3.50335 24.3846 3.69412 19.2235 3.69412 16.8199C3.69412 14.4163 3.51042 9.24781 4.33003 7.08015C4.88114 5.63504 5.94805 4.52172 7.33997 3.93925C9.42432 3.07661 14.3702 3.27568 16.6736 3.27568C18.977 3.27568 23.93 3.08398 26.0073 3.93925C27.3921 4.51434 28.4591 5.62767 29.0172 7.08015C29.8439 9.25519 29.6531 14.4163 29.6531 16.8199C29.6531 19.2235 29.8439 24.392 29.0172 26.5596Z" fill="white"/>
</svg>
