<svg width="33" height="34" viewBox="0 0 33 34" fill="none" xmlns="http://www.w3.org/2000/svg">
<path d="M8.00136 33.341H1.43516V11.2804H8.00136V33.341ZM4.71473 8.27116C2.61507 8.27116 0.912018 6.45675 0.912018 4.26618C0.912018 3.21398 1.31266 2.20486 2.0258 1.46084C2.73895 0.716816 3.70618 0.298828 4.71473 0.298828C5.72327 0.298828 6.6905 0.716816 7.40365 1.46084C8.11679 2.20486 8.51743 3.21398 8.51743 4.26618C8.51743 6.45675 6.81367 8.27116 4.71473 8.27116ZM32.5765 33.341H26.0244V22.602C26.0244 20.0427 25.975 16.7605 22.6106 16.7605C19.1967 16.7605 18.6735 19.5411 18.6735 22.4176V33.341H12.1144V11.2804H18.412V14.2897H18.5039C19.3805 12.5564 21.5219 10.7272 24.7166 10.7272C31.362 10.7272 32.5836 15.2928 32.5836 21.2228V33.341H32.5765Z" fill="white"/>
</svg>
