<svg width="43" height="34" viewBox="0 0 43 34" fill="none" xmlns="http://www.w3.org/2000/svg">
<path d="M42.1274 11.6933C42.449 11.4265 42.9274 11.676 42.9274 12.0977V29.6943C42.9274 31.9746 41.1541 33.8246 38.9685 33.8246H4.65761C2.47195 33.8246 0.698669 31.9746 0.698669 29.6943V12.1063C0.698669 11.676 1.16879 11.4351 1.49871 11.7019C3.34621 13.1991 5.79581 15.1007 14.2086 21.4768C15.9489 22.802 18.8851 25.5899 21.813 25.5727C24.7575 25.5985 27.7515 22.7503 29.4258 21.4768C37.8385 15.1007 40.2799 13.1905 42.1274 11.6933ZM21.813 22.8106C23.7265 22.845 26.4813 20.298 27.8669 19.2482C38.8118 10.9619 39.6448 10.2391 42.1686 8.17393C42.647 7.78671 42.9274 7.18438 42.9274 6.54763V4.91274C42.9274 2.63249 41.1541 0.782471 38.9685 0.782471H4.65761C2.47195 0.782471 0.698669 2.63249 0.698669 4.91274V6.54763C0.698669 7.18438 0.979095 7.77811 1.45747 8.17393C3.98129 10.2305 4.81432 10.9619 15.7592 19.2482C17.1448 20.298 19.8995 22.845 21.813 22.8106Z" fill="white"/>
</svg>
