<svg width="33" height="32" viewBox="0 0 33 32" fill="none" xmlns="http://www.w3.org/2000/svg">
<path d="M31.9392 24.5229L31.9394 24.5225C32.095 24.1457 31.8796 23.8803 31.6503 23.8409L31.6503 23.8409C29.4151 23.4565 27.8055 22.0699 26.7521 20.775C25.698 19.4791 25.1826 18.2531 25.1377 18.1439L25.1371 18.1425C25.1358 18.1393 25.1347 18.1366 25.1336 18.1342C25.1323 18.1311 25.1311 18.1286 25.1301 18.1266L25.128 18.1223L25.128 18.1223C24.8851 17.6081 24.8035 17.1219 24.9703 16.7115L24.9703 16.7114C25.1283 16.3228 25.4845 16.0589 25.8362 15.8733C26.1908 15.686 26.5881 15.5547 26.8873 15.4557L26.8934 15.4537C27.0652 15.3968 27.2155 15.3467 27.3367 15.2969C28.4002 14.8588 28.791 14.3757 28.7827 13.918C28.7758 13.5574 28.5034 13.1896 27.9823 12.995L31.9392 24.5229ZM31.9392 24.5229C31.8164 24.822 31.4723 25.128 30.7995 25.4127C30.135 25.6938 29.1964 25.9345 27.9637 26.1341L27.8605 26.1509L27.7999 26.2362C27.7402 26.3202 27.7003 26.441 27.6704 26.5454C27.6375 26.6602 27.6056 26.7985 27.5738 26.9434C27.5608 27.0025 27.5477 27.063 27.5345 27.1242C27.4816 27.3696 27.4261 27.6271 27.3606 27.859L27.3605 27.8596C27.3211 28.0003 27.2587 28.0931 27.1846 28.1514C27.1119 28.2086 27.0075 28.2489 26.853 28.2493M31.9392 24.5229L26.853 28.2493M26.853 28.2493L26.837 28.249V28.249H26.8326C26.621 28.249 26.4079 28.208 26.124 28.1534C26.0582 28.1408 25.9886 28.1274 25.9144 28.1137C25.5297 28.0424 25.0578 27.97 24.4293 27.97C23.5879 27.97 23.0004 28.0701 22.4541 28.3022C21.9167 28.5306 21.4331 28.8817 20.8012 29.3474L20.8011 29.3474C19.4547 30.3407 18.2215 31.1509 16.3817 31.0671L16.3664 31.0664L16.3512 31.0676C14.5318 31.2076 12.9955 30.0737 12.0584 29.382C12.0424 29.3702 12.0267 29.3586 12.0111 29.3471L11.8646 29.5457L12.0111 29.3471C11.3751 28.8781 10.8901 28.5271 10.3528 28.2996C9.80684 28.0684 9.22148 27.97 8.3837 27.97C7.77769 27.97 7.28486 28.0493 6.88507 28.1269C6.79435 28.1445 6.71059 28.1615 6.63278 28.1773C6.35404 28.2337 6.15178 28.2747 5.98038 28.2747C5.78896 28.2747 5.67816 28.216 5.6078 28.1501C5.53189 28.079 5.48257 27.9799 5.45263 27.8735L5.45259 27.8734C5.38816 27.6449 5.33342 27.3884 5.2809 27.1424C5.26748 27.0795 5.25421 27.0173 5.24095 26.9564C5.20908 26.8101 5.17699 26.67 5.14371 26.5534C5.11333 26.4469 5.07285 26.3247 5.01247 26.2395L4.95189 26.154L4.84843 26.1372C4.20905 26.0337 3.18916 25.8536 2.32349 25.5376C1.88992 25.3794 1.51126 25.1926 1.24093 24.9757C0.971493 24.7596 0.834092 24.5345 0.820947 24.2958C0.815189 24.1856 0.848754 24.0784 0.913062 23.9948C0.977214 23.9113 1.06669 23.8578 1.16293 23.8412C3.3971 23.4575 5.00656 22.0709 6.06003 20.7759C7.1143 19.48 7.63015 18.2536 7.67518 18.1443L7.67588 18.1426C7.67775 18.1379 7.68 18.1329 7.6853 18.1214C7.92753 17.608 8.00947 17.1217 7.8426 16.7114L7.84259 16.7114C7.6458 16.2278 7.14346 15.9337 6.69125 15.7375C6.457 15.6359 6.21664 15.5527 6.00438 15.4816C5.96662 15.4689 5.93005 15.4568 5.8947 15.445C5.72594 15.3888 5.58509 15.3419 5.47622 15.297L5.47609 15.297C4.76633 15.0045 4.39483 14.7031 4.20851 14.4458C4.02814 14.1968 4.01031 13.9744 4.04248 13.798L4.0425 13.7979C4.09848 13.4903 4.35827 13.2101 4.71778 13.0426C5.0786 12.8745 5.46852 12.8536 5.72815 12.9804C5.72817 12.9805 5.7282 12.9805 5.72822 12.9805L5.83798 12.7559M26.853 28.2493L16.0861 0.521857C16.1164 0.521857 16.2551 0.52045 16.3928 0.519053L16.4008 0.518972C16.5436 0.517524 16.6832 0.516113 16.7115 0.516113C19.843 0.516113 22.8484 2.18987 24.3205 5.63323C24.6945 6.5083 24.8154 7.75209 24.8205 9.09612C24.8245 10.1378 24.7596 11.2144 24.7005 12.1953C24.6836 12.475 24.6672 12.7469 24.653 13.0081L24.6447 13.1617L24.778 13.2383C24.9099 13.3142 25.1201 13.3947 25.4225 13.4094L25.4343 13.4099L25.4462 13.4094C25.8874 13.3888 26.3805 13.2391 26.9093 12.9805M5.83798 12.7559C6.3897 13.0257 6.87986 13.1622 7.29456 13.1622C7.60521 13.1622 7.80254 13.0845 7.91067 13.0221C7.89669 12.7656 7.88042 12.4969 7.86363 12.2193C7.72858 9.98769 7.55892 7.18413 8.26245 5.53806M5.83798 12.7559C5.14041 12.415 3.94728 12.9248 3.79654 13.7531L5.83798 12.7559ZM8.26245 5.53806L8.49233 5.63634C8.49233 5.63633 8.49233 5.63632 8.49234 5.63631L8.26245 5.53806ZM8.26245 5.53806C10.3516 0.651582 14.7796 0.271857 16.0861 0.271857C16.1151 0.271857 16.2548 0.27044 16.3954 0.269013C16.5379 0.267568 16.6813 0.266113 16.7115 0.266113C19.9373 0.266113 23.0367 1.99437 24.5504 5.53496C25.2534 7.17969 25.085 9.97303 24.9497 12.2152C24.9329 12.4936 24.9167 12.7635 24.9026 13.0216C25.0005 13.0779 25.1722 13.1469 25.4346 13.1597C25.8303 13.1412 26.2891 13.0055 26.7997 12.7559M26.7997 12.7559L26.9093 12.9805M26.7997 12.7559L26.9095 12.9805C26.9095 12.9805 26.9094 12.9805 26.9093 12.9805M26.7997 12.7559L26.9093 12.9805M7.44401 18.0491C7.36341 18.2448 5.42471 22.8556 1.12042 23.5949C0.960617 23.6224 0.816194 23.7106 0.714856 23.8424C0.613518 23.9743 0.5624 24.1405 0.571308 24.3092L7.44401 18.0491ZM7.44401 18.0491C7.44858 18.0377 7.4536 18.0269 7.45867 18.0159L7.44401 18.0491ZM27.9811 12.9945L27.982 12.9949L27.9811 12.9945Z" fill="white" stroke="black" stroke-width="0.5"/>
</svg>
