<svg width="33" height="32" viewBox="0 0 33 32" fill="none" xmlns="http://www.w3.org/2000/svg">
<path d="M32.1705 24.6179C31.8481 25.4025 30.4855 25.9789 28.0037 26.3809C27.876 26.5607 27.7702 27.3287 27.6012 27.9269C27.5007 28.2861 27.2534 28.4993 26.851 28.4993L26.8326 28.499C26.2515 28.499 25.6447 28.22 24.4293 28.22C22.7888 28.22 22.2233 28.61 20.9495 29.5486C19.599 30.5449 18.3038 31.4049 16.3703 31.3168C14.4128 31.4675 12.781 30.2257 11.8627 29.5483C10.5813 28.6033 10.0176 28.22 8.3837 28.22C7.2168 28.22 6.48242 28.5247 5.98038 28.5247C5.481 28.5247 5.28676 28.207 5.21198 27.9413C5.04477 27.3482 4.93955 26.569 4.80847 26.384C3.52931 26.1769 0.644796 25.6519 0.571308 24.3092C0.5624 24.1405 0.613518 23.9743 0.714856 23.8424C0.816194 23.7106 0.960617 23.6224 1.12042 23.5949C5.42471 22.8556 7.36341 18.2448 7.44401 18.0491C7.44858 18.0377 7.4536 18.0269 7.45867 18.0159C7.68835 17.5295 7.73975 17.1221 7.61102 16.8056C7.29864 16.0379 5.94877 15.7625 5.38085 15.5281C3.91388 14.9237 3.70975 14.2291 3.79654 13.7531C3.94728 12.9248 5.14041 12.415 5.83798 12.7559C6.3897 13.0257 6.87986 13.1622 7.29456 13.1622C7.60521 13.1622 7.80254 13.0845 7.91067 13.0221C7.78429 10.703 7.47141 7.38886 8.26245 5.53806C10.3516 0.651582 14.7796 0.271857 16.0861 0.271857C16.1445 0.271857 16.6515 0.266113 16.7115 0.266113C19.9373 0.266113 23.0367 1.99437 24.5504 5.53496C25.3407 7.38389 25.0297 10.6844 24.9026 13.0216C25.0005 13.0779 25.1722 13.1469 25.4346 13.1597C25.8303 13.1412 26.2891 13.0055 26.7997 12.7559C27.1761 12.5722 27.6908 12.597 28.0666 12.7596L28.0684 12.7603C28.6545 12.9787 29.0234 13.4195 29.0327 13.9135C29.044 14.5425 28.5055 15.0858 27.4319 15.528C27.3009 15.5819 27.1415 15.6348 26.972 15.691C26.366 15.8914 25.4503 16.1947 25.2019 16.8056C25.0733 17.1221 25.1242 17.5291 25.3541 18.0155C25.3595 18.0263 25.3643 18.0376 25.3689 18.0487C25.4493 18.2443 27.3864 22.854 31.6926 23.5945C32.0902 23.6628 32.3832 24.1028 32.1705 24.6179Z" fill="white"/>
</svg>
