<svg width="33" height="28" viewBox="0 0 33 28" fill="none" xmlns="http://www.w3.org/2000/svg">
<path d="M29.1624 7.08457C29.1825 7.37808 29.1825 7.67165 29.1825 7.96516C29.1825 16.9176 22.6513 27.2328 10.7141 27.2328C7.03644 27.2328 3.62011 26.1216 0.746338 24.1928C1.26886 24.2556 1.77121 24.2766 2.31384 24.2766C5.34832 24.2766 8.14174 23.2074 10.3724 21.3834C7.51876 21.3204 5.1273 19.3706 4.30334 16.687C4.7053 16.7498 5.10719 16.7918 5.52926 16.7918C6.11203 16.7918 6.69486 16.7079 7.23742 16.5612C4.26319 15.9322 2.03244 13.2066 2.03244 9.91498V9.83115C2.89655 10.3343 3.90144 10.6488 4.96647 10.6907C3.21809 9.47465 2.07265 7.39906 2.07265 5.05086C2.07265 3.79293 2.39413 2.63981 2.95686 1.63344C6.15217 5.74275 10.9552 8.42634 16.3409 8.71991C16.2405 8.21672 16.1802 7.69263 16.1802 7.16847C16.1802 3.4365 19.074 0.396484 22.6712 0.396484C24.5402 0.396484 26.2282 1.21415 27.414 2.535C28.8809 2.24149 30.2877 1.67539 31.5337 0.899669C31.0513 2.47215 30.0264 3.793 28.68 4.63157C29.9863 4.48488 31.2523 4.10741 32.4179 3.58332C31.5338 4.92508 30.4285 6.12009 29.1624 7.08457V7.08457Z" fill="white"/>
</svg>
