<svg width="90" height="63" viewBox="0 0 90 63" fill="none" xmlns="http://www.w3.org/2000/svg">
<path d="M65.592 59.944C62.3067 61.864 58.9573 62.824 55.544 62.824C52.1307 62.824 48.888 62.184 45.816 60.904C42.7867 59.624 39.8 57.384 36.856 54.184C33.9547 51.0267 31.5653 47.1653 29.688 42.6L27.96 38.376H14.264L11.704 44.328C11.4907 44.8827 11.384 45.3307 11.384 45.672C11.384 46.0133 11.448 46.3973 11.576 46.824C11.7467 47.208 12.0667 47.5707 12.536 47.912C13.048 48.2107 13.5813 48.36 14.136 48.36H14.712V49H0.44V48.36H1.016C1.99733 48.36 2.95733 48.0827 3.896 47.528C4.87733 46.9307 5.688 46.056 6.328 44.904L19.384 16.232C18.104 12.6907 17.0373 10.3227 16.184 9.128C15.3733 7.89067 14.6907 6.952 14.136 6.312C13.112 5.11733 11.832 4.24266 10.296 3.688C9.69867 3.47466 8.99467 3.368 8.184 3.368C7.37333 3.368 6.456 3.56 5.432 3.944L5.304 3.304C8.71733 1.29866 11.9813 0.295998 15.096 0.295998C19.704 0.295998 23.864 2.55733 27.576 7.08C29.4533 9.42666 31.1387 12.264 32.632 15.592L42.872 39.08C44.7493 43.3893 46.136 46.2907 47.032 47.784C47.928 49.2347 48.7173 50.472 49.4 51.496C50.1253 52.5627 50.8293 53.48 51.512 54.248C52.1947 55.016 52.9413 55.7627 53.752 56.488C55.16 57.768 56.9307 58.728 59.064 59.368C59.96 59.6667 60.9413 59.816 62.008 59.816C63.1173 59.816 64.2693 59.6453 65.464 59.304L65.592 59.944ZM15.672 35.176H26.68L22.648 25.256C22.3067 24.488 21.9013 23.4 21.432 21.992L15.672 35.176ZM89.3455 38.12C89.3455 39.9547 88.9402 41.9173 88.1295 44.008C87.3188 46.056 86.0175 47.9547 84.2255 49.704C82.4335 51.4533 80.1295 52.8827 77.3135 53.992C74.4975 55.1013 71.4255 55.656 68.0975 55.656C64.7695 55.656 61.7828 55.1227 59.1375 54.056C54.1882 52.0933 50.9668 48.6587 49.4735 43.752C49.0895 42.4293 48.8975 41.192 48.8975 40.04C48.8975 36.328 50.0282 32.8507 52.2895 29.608L52.8655 30.056C51.4575 32.5733 50.7535 35.0053 50.7535 37.352C50.7535 40.2533 51.4788 42.8133 52.9295 45.032C54.3802 47.2507 56.3215 48.9787 58.7535 50.216C61.1855 51.4533 63.6602 52.072 66.1775 52.072C68.7375 52.072 70.8922 51.6667 72.6415 50.856C74.3908 50.0453 75.6708 48.9573 76.4815 47.592C77.2922 46.2267 77.6975 44.7973 77.6975 43.304C77.6975 41.8107 77.1642 40.296 76.0975 38.76C75.0308 37.1813 73.4522 35.816 71.3615 34.664L60.9295 28.52C55.6388 25.4053 52.9935 21.3947 52.9935 16.488C52.9935 12.0933 54.5295 8.70133 57.6015 6.312C60.1615 4.30666 63.6388 3.304 68.0335 3.304C70.8495 3.304 74.4335 3.51733 78.7855 3.944H83.7775L82.4335 14.376H81.7935C81.7935 12.0293 80.8762 10.1307 79.0415 8.68C77.2068 7.22933 74.8602 6.504 72.0015 6.504C69.1428 6.504 66.9455 6.99466 65.4095 7.976C63.8735 8.95733 63.0415 10.2587 62.9135 11.88C62.7855 12.9893 63.0842 13.928 63.8095 14.696C64.4495 15.3787 65.0895 15.912 65.7295 16.296C66.3695 16.6373 66.9455 16.9573 67.4575 17.256C67.9695 17.5547 68.3322 17.7467 68.5455 17.832L80.5135 24.68C83.2015 26.1733 85.2922 28.0293 86.7855 30.248C88.4922 32.7653 89.3455 35.3893 89.3455 38.12Z" fill="url(#paint0_linear_0_4)"/>
<defs>
<linearGradient id="paint0_linear_0_4" x1="91" y1="-13" x2="-8.53816" y2="-13" gradientUnits="userSpaceOnUse">
<stop stop-color="#CF9FE6"/>
<stop offset="1" stop-color="#E7833C"/>
</linearGradient>
</defs>
</svg>
